<?xml version="1.0" encoding="utf-8"?>
<!-- Generator: Adobe Illustrator 16.0.3, SVG Export Plug-In . SVG Version: 6.00 Build 0)  -->
<!DOCTYPE svg PUBLIC "-//W3C//DTD SVG 1.1//EN" "http://www.w3.org/Graphics/SVG/1.1/DTD/svg11.dtd">
<svg version="1.1" id="Ebene_1" xmlns="http://www.w3.org/2000/svg" xmlns:xlink="http://www.w3.org/1999/xlink" x="0px" y="0px"
	 width="455.167px" height="617.5px" viewBox="0 0 455.167 617.5" enable-background="new 0 0 455.167 617.5" xml:space="preserve">
<g id="Zettel_1_">
	<path id="Zettel" fill="#EDEDED" d="M298.804,32.419c0.552,0,2.503,0.959,6.288,0.472c-1.386,1.511-3.438,2.907-5.043,4.168
		c0.532-0.164,1.033-0.494,1.502-0.796c-2.118,1.793-4.992,2.798-6.719,4.822c0.758,0.105,1.412,0.131,2.047,0.275
		c-1.303,0.995-2.034,3.022-2.842,4.206c7.475-0.921,4.651,9.798,0.532,4.902c1.835,6.006-1.283,11.813-5.531,4.62
		c-0.654,0.058-0.468,0.747-0.872,1.174c0,0.007-1.207-0.998-1.053-1.011c0.128,2.955-1.315,5.592-4.081,4.784
		c-2.188,1.104-1.438,2.464-3.722-0.27c0.039,1.273-0.821,2.707-0.879,3.567c-0.635-0.376-1.456-0.854-2.002-1.255
		c-0.096,0.119-0.469,1.168-0.584,1.148c-0.237,0.803-0.988-0.689-0.744-0.59c0.007,1.373-0.642,2.829-0.719,3.48
		c-0.302-0.616-0.449-1.354-0.821-1.899c-0.103,0-0.18,1.315-0.487,1.123c-0.744-0.648-0.526-1.129-0.931-1.963
		c-0.455,0.302-0.738,1.222-1.123,1.598c-0.327-0.439-1.918-1.899-2.444-2.207c-1.989,2.527-5.152,5.091-8.182,5.286
		c-0.013-1.418-0.692-2.804-0.538-4.237c-0.476,0.093-1.015,0.764-1.527,0.959c-0.103,0.042,0.128-0.991-0.205-0.966
		c-0.976,0.821-2.433,1.373-3.587,1.925c0.096-0.754-0.661-2.993-0.494-3.994c-0.988,0.716-2.566,0.834-3.517,1.499
		c-1.321-2.904,0.591-6.058,1.707-9.475c-1.655,0.295-4.119,0.189-5.858,1.203c0.545-0.834,0.847-1.822,1.572-2.739
		c-1.348,0.785-3.433,0.991-4.902,1.87c-0.103-0.504-0.039-1.338-0.013-1.845c-1.502-0.067-1.867,0.087-2.836-0.946
		c0.051,0.013-2.194,0.382-2.413,0.413c0.205-0.375,0.636-1.341,0.879-1.88c-1.957,1.447-4.279,2.493-6.615,2.695
		c0-0.591,0.058-1.354-0.013-1.944c-5.579,1.925-7-0.702-6.677-5.774c-2.175,2.37-6.801,5.524-8.223,1.248
		c-0.879,0.131-1.181,1.042-1.918,1.491c-0.164-0.243,0.192-1.341-0.439-1.196c-0.709,1.354-2.333,2.708-3.022,4.238
		c-0.552-2.676,0.007-5.486,0.08-8.232c-0.847,0.552-2.576,1.293-3.202,1.905c-0.188-0.552,0.344-1.264,0.318-1.803
		c-0.626-0.007-0.915,1.283-1.53,1.396c-0.279-0.712,0.188-1.578-0.126-2.287c-1.077,0.243-1.328,1.017-2.338,1.466
		c-0.023-0.225,0.076-1.78-0.112-1.874c-0.738,0.646-3.07,1.31-3.988,2.253c0.359-1.877-0.35-4.085-0.08-6.013
		c-3.083,1.565-5.531,4.857-8.14,7.209c0.215-2.22-0.25-4.309-0.513-6.346c-0.934,0.42-1.53,0.772-2.358,1.491
		c-0.279-0.105,0.253-1.341-0.362-1.171c-1.235,0.671-3.504,0.646-4.633,1.146c0.513-1.848,0.369-4.106,1.084-5.909
		c-0.414,0.167-1.071,0.625-1.536,0.834c0.031-1.444,0.17-2.711,0.866-3.856c-0.729,0.606-1.512,0.979-2.413,1.56
		c0.035-0.613-0.051-1.271-0.077-1.906c-0.302,0.02-0.612,0.039-0.921,0.058c-1.142,0.613-2.114,0.664-2.916,0.192
		c-28.576,2.076-58.432,7.029-89.504,6.17c-22.281,0.275-36.217,0.058-36.217,0.058c-0.189,34.146-0.189,60.427-0.189,94.627
		c0,11.874,0,24.501,0,37.703c0,105.642,0,248.344,0,339.163c0,13.243,0,25.384,0,36.144c0,1.919-0.106,3.838-0.219,5.756
		l5.409,6.68c0.064-0.038,0.138-0.07,0.202-0.115c-0.07,0.038-0.115,0.083-0.189,0.128l6.195,7.661
		c2.913,0.154,5.811,0.264,8.614,0.058c-0.684,2.599,0.715,2.349,1.918,3.754c-1.748,0.847-3.179,2.207-4.571,3.542l0.353,0.442
		c1.078-0.654,2.012-1.104,2.086-0.763c-0.257,0.269-1.126,0.673-1.894,1.007l5.84,7.212c1.373-0.455,2.749-0.949,4.116-1.54
		c-0.363,0.257-2.019,1.746-3.084,2.811l0.206,0.257c0.503-0.295,0.991-0.622,1.495-0.956c0.959-1.328,1.88-2.637,2.707-3.632
		c-0.202,1.732-1.386,2.772-2.707,3.632c-0.354,0.494-0.716,0.981-1.091,1.47l0.275,0.333c3.767-2.944,8.085-4.632,12.217-7.282
		c-0.1,1.97-2.393,3.061-2.3,5.563c0.093,0.777,3.75-0.43,4.219,1.265c-3.042,1.456-5.592,3.215-8.405,4.985
		c0.808,0.873,3.917-1.052,5.033,0.129c-0.314,1.912-2.557,2.656-3.455,4.376l1.168,1.45c0.908-0.104,1.893-0.386,2.662,0.09
		c0.171-0.142-0.525,0.654-1.347,1.539l0.35,0.424c0.359-0.141,0.696-0.218,0.952-0.103c-0.179,0.142-0.407,0.719-0.619,0.898
		l1.203,1.835c2.221,0,4.521,0,6.898,0c4.212,0,8.425-1.745,12.537-2.785c-2.056,0.552-4.546,2.785-7.103,2.785
		c26.808,0,61.769,0,98.413,0c8.62,0,17.324-0.385,26.025-0.397c42.05,0.013,86.517-0.219,132.4-4.864
		c-1.521-1.604-2.868-3.433-3.792-5.473c1.367,1.841,3.683,3.4,5.774,3.945c0.373-2.617-0.635-5.223-1.898-7.449
		c0.603,0.789,1.79,1.547,2.502,2.394c-0.244-1.155,0.039-2.503-0.199-3.657c0.418,0.59,1.303,1.129,1.777,1.765
		c0.347-1.617,0.629-3.452,1.13-5.108c1.373,1.752,1.989,4.422,3.26,6.09c-0.077-2.156-0.449-5.429,1.681-6.385
		c0.924,2.207,1.617,4.568,1.707,6.962c0.821-5.659,0.487-10.016,2.412-15.335c-0.205,2.644,0.282,5.774,1.014,8.148
		c0.09-0.705,0.431-1.226,0.604-1.726c0.501,1.251,1.488,1.648,2.207,2.586c0.462-0.526,0.411-1.001,0.591-1.643
		c0.526,0.205,0.962,0.705,1.335,0.937c-0.026-0.494-0.09-1.014,0.025-1.502c0.16-0.108,0.327-0.192,0.5-0.269
		c1.104,0.795,2.368,1.181,3.606,1.251c0.167-3.42,0.397-7.45,0.712-12.172c1.277-9.253,2.701-18.583,4.203-27.95
		c12.576-92.025-0.564-184.013,12.576-276.128c0-8.7,0-17.321,0-25.842c0-110.739,0-203.239,0-203.239
		S356.322,32.419,298.804,32.419z"/>
	<g id="Klebestreifen">
		<polygon opacity="0.3" fill="#666666" enable-background="new    " points="88.735,526.989 98.883,543.884 36.922,581.093 
			26.774,564.191 		"/>
		<polygon opacity="0.3" fill="#666666" enable-background="new    " points="428.392,552.591 420.641,570.711 354.185,542.299 
			361.936,524.172 		"/>
		<polygon opacity="0.3" fill="#666666" enable-background="new    " points="414.648,77.193 399.049,89.25 354.846,32.079 
			370.438,20.02 		"/>
		
			<rect x="46.361" y="31.653" transform="matrix(0.9356 0.3531 -0.3531 0.9356 27.5534 -15.4822)" opacity="0.3" fill="#666666" enable-background="new    " width="19.711" height="72.271"/>
	</g>
	<g id="Aufschrift">
		
			<text transform="matrix(0.9091 0.0221 -0.0243 0.9997 140.5396 130.4785)" font-family="'MyriadPro-Regular'" font-size="60.6013">der Rest</text>
		
			<line id="Unterstrich" fill="none" stroke="#000000" stroke-width="0.75" stroke-miterlimit="10" x1="139.133" y1="137.46" x2="331.669" y2="142.539"/>
	</g>
</g>
</svg>
