<?xml version="1.0" encoding="utf-8"?>
<!-- Generator: Adobe Illustrator 16.0.3, SVG Export Plug-In . SVG Version: 6.00 Build 0)  -->
<!DOCTYPE svg PUBLIC "-//W3C//DTD SVG 1.1//EN" "http://www.w3.org/Graphics/SVG/1.1/DTD/svg11.dtd">
<svg version="1.1" id="Ebene_1" xmlns="http://www.w3.org/2000/svg" xmlns:xlink="http://www.w3.org/1999/xlink" x="0px" y="0px"
	 width="297.083px" height="411.25px" viewBox="0 0 297.083 411.25" enable-background="new 0 0 297.083 411.25"
	 xml:space="preserve">
<g id="Zettel_1_">
	<path id="Zettel" fill="#EDEDED" d="M214.87,38.716c0.341,0.035,1.488,0.75,3.859,0.686c-0.952,0.847-2.309,1.582-3.379,2.262
		c0.339-0.069,0.669-0.241,0.979-0.398c-1.422,0.976-3.263,1.417-4.457,2.561c0.462,0.112,0.865,0.169,1.249,0.298
		c-0.867,0.534-1.447,1.741-2.02,2.423c4.679-0.102,2.262,6.35,0.021,3.064c0.759,3.829-1.532,7.225-3.708,2.511
		c-0.409-0.005-0.337,0.433-0.613,0.671c0,0.004-0.684-0.692-0.588-0.691c-0.106,1.836-1.163,3.376-2.823,2.704
		c-1.421,0.545-1.043,1.433-2.284-0.4c-0.056,0.79-0.677,1.623-0.767,2.151c-0.369-0.272-0.847-0.619-1.159-0.901
		c-0.067,0.067-0.364,0.693-0.433,0.673c-0.197,0.481-0.568-0.488-0.423-0.412c-0.083,0.85-0.574,1.709-0.663,2.107
		c-0.148-0.399-0.193-0.865-0.389-1.225c-0.063-0.007-0.193,0.802-0.372,0.664c-0.419-0.447-0.254-0.731-0.453-1.272
		c-0.3,0.158-0.532,0.709-0.794,0.918c-0.175-0.292-1.067-1.294-1.373-1.518c-1.388,1.438-3.505,2.825-5.391,2.757
		c0.082-0.878-0.252-1.777-0.067-2.654c-0.3,0.028-0.675,0.409-1.004,0.497c-0.067,0.02,0.141-0.604-0.067-0.61
		c-0.655,0.447-1.59,0.697-2.338,0.966c0.106-0.461-0.221-1.892-0.056-2.5c-0.656,0.381-1.639,0.355-2.269,0.707
		c-0.635-1.878,0.745-3.709,1.649-5.752c-1.042,0.079-2.559-0.142-3.698,0.377c0.389-0.482,0.638-1.073,1.143-1.596
		c-0.882,0.402-2.185,0.398-3.148,0.85c-0.033-0.318,0.059-0.831,0.107-1.142c-0.925-0.135-1.16-0.063-1.695-0.762
		c0.031,0.011-1.38,0.099-1.518,0.104c0.149-0.219,0.477-0.789,0.661-1.107c-1.301,0.773-2.802,1.274-4.259,1.252
		c0.037-0.365,0.12-0.833,0.114-1.203c-3.571,0.842-4.286-0.872-3.769-3.988c-1.493,1.33-4.55,2.99-5.162,0.258
		c-0.552,0.025-0.795,0.57-1.28,0.802c-0.085-0.161,0.203-0.817-0.197-0.768c-0.523,0.793-1.612,1.529-2.134,2.433
		c-0.173-1.69,0.348-3.393,0.565-5.086c-0.559,0.288-1.673,0.639-2.099,0.978c-0.082-0.354,0.292-0.76,0.31-1.095
		c-0.387-0.043-0.646,0.736-1.034,0.768c-0.128-0.458,0.215-0.964,0.065-1.422c-0.681,0.083-0.885,0.545-1.537,0.76
		c0-0.141,0.159-1.096,0.048-1.166c-0.497,0.354-1.98,0.618-2.607,1.144c0.339-1.138,0.039-2.548,0.327-3.723
		c-2.005,0.775-3.724,2.657-5.484,3.949c0.271-1.359,0.115-2.68,0.08-3.957c-0.604,0.201-0.995,0.381-1.551,0.774
		c-0.166-0.083,0.24-0.813-0.151-0.747c-0.805,0.338-2.208,0.18-2.937,0.419c0.433-1.111,0.485-2.517,1.04-3.587
		c-0.266,0.078-0.701,0.32-1.002,0.42c0.11-0.891,0.275-1.666,0.777-2.33c-0.488,0.329-0.996,0.511-1.59,0.814
		c0.061-0.377,0.049-0.789,0.072-1.184c-0.188-0.006-0.381-0.014-0.573-0.021c-0.745,0.308-1.348,0.278-1.815-0.064
		c-17.8-0.504-36.572,0.691-55.733-1.785c-13.795-1.224-22.399-2.23-22.399-2.23c-2.253,21.103-3.898,37.355-6.038,58.503
		c-0.743,7.343-1.533,15.15-2.359,23.314c-6.61,65.327-15.54,153.57-21.223,209.729c-0.829,8.189-1.588,15.697-2.261,22.352
		c-0.12,1.186-0.306,2.367-0.496,3.545l2.927,4.469c0.042-0.02,0.09-0.033,0.133-0.059c-0.046,0.02-0.077,0.045-0.125,0.068
		l3.352,5.125c1.792,0.277,3.577,0.525,5.323,0.574c-0.586,1.564,0.294,1.498,0.951,2.441c-1.134,0.414-2.104,1.166-3.048,1.904
		l0.19,0.295c0.707-0.336,1.313-0.557,1.338-0.34c-0.176,0.15-0.738,0.344-1.234,0.504l3.16,4.824
		c0.877-0.195,1.759-0.414,2.642-0.693c-0.241,0.137-1.357,0.953-2.083,1.545l0.111,0.17c0.33-0.15,0.652-0.322,0.984-0.496
		c0.676-0.762,1.328-1.514,1.901-2.076c-0.233,1.059-1.03,1.627-1.901,2.076c-0.25,0.283-0.504,0.563-0.767,0.84l0.149,0.223
		c2.514-1.584,5.29-2.357,8.011-3.738c-0.186,1.213-1.671,1.744-1.771,3.297c0.009,0.486,2.346-0.031,2.53,1.047
		c-1.972,0.709-3.659,1.639-5.509,2.557c0.445,0.59,2.488-0.406,3.104,0.395c-0.314,1.162-1.748,1.482-2.41,2.488l0.632,0.971
		c0.568-0.008,1.195-0.119,1.64,0.223c0.115-0.078-0.366,0.371-0.93,0.867l0.19,0.283c0.23-0.064,0.443-0.09,0.595-0.002
		c-0.12,0.076-0.296,0.418-0.439,0.516l0.629,1.211c1.373,0.139,2.795,0.281,4.266,0.43c2.604,0.264,5.318-0.551,7.926-0.936
		c-1.305,0.211-2.985,1.436-4.565,1.275c16.577,1.678,38.196,3.865,60.855,6.158c5.33,0.539,10.736,0.846,16.118,1.383
		c26.001,2.639,53.513,5.279,82.176,5.277c-0.84-1.088-1.559-2.303-2.002-3.621c0.73,1.225,2.064,2.332,3.323,2.801
		c0.394-1.594-0.066-3.27-0.707-4.725c0.323,0.525,1.01,1.068,1.397,1.637c-0.079-0.73,0.18-1.545,0.105-2.273
		c0.222,0.391,0.735,0.779,0.988,1.201c0.317-0.979,0.605-2.094,1.019-3.088c0.739,1.17,0.954,2.859,1.635,3.971
		c0.088-1.338,0.063-3.387,1.438-3.844c0.433,1.422,0.715,2.926,0.621,4.412c0.862-3.447,0.928-6.162,2.451-9.332
		c-0.293,1.623-0.186,3.588,0.117,5.102c0.1-0.43,0.345-0.73,0.483-1.027c0.231,0.803,0.816,1.111,1.203,1.736
		c0.318-0.297,0.316-0.594,0.468-0.98c0.313,0.16,0.55,0.496,0.767,0.664c0.014-0.307,0.008-0.633,0.109-0.928
		c0.105-0.057,0.213-0.098,0.326-0.135c0.633,0.561,1.391,0.879,2.15,1c0.318-2.105,0.713-4.584,1.201-7.484
		c1.371-5.641,2.834-11.32,4.35-17.02c13.535-56.118,11.166-113.824,25.055-169.963c0.545-5.379,1.084-10.71,1.617-15.979
		c6.93-68.478,12.717-125.678,12.717-125.678S250.439,42.315,214.87,38.716z"/>
	<g id="Klebestreifen">
		<polygon opacity="0.3" fill="#666666" enable-background="new    " points="54.023,331.4 59.241,342.482 18.598,361.615 
			13.38,350.527 		"/>
		<polygon opacity="0.3" fill="#666666" enable-background="new    " points="262.456,368.484 256.529,379.205 217.212,357.479 
			223.139,346.754 		"/>
		<polygon opacity="0.3" fill="#666666" enable-background="new    " points="283.704,73.652 273.304,80.132 249.546,42.013 
			259.943,35.531 		"/>
		
			<rect x="56.52" y="22.95" transform="matrix(-0.8953 -0.4455 0.4455 -0.8953 98.504 113.971)" opacity="0.3" fill="#666666" enable-background="new    " width="12.251" height="44.919"/>
	</g>
	<g id="Aufschrift">
		<text transform="matrix(0.9023 0.1135 -0.1248 0.9922 110.8679 89.4492)" font-family="'BaskOldFace'" font-size="37.6654">der Rest</text>
	</g>
</g>
</svg>
