<?xml version="1.0" encoding="utf-8"?>
<!-- Generator: Adobe Illustrator 16.0.3, SVG Export Plug-In . SVG Version: 6.00 Build 0)  -->
<!DOCTYPE svg PUBLIC "-//W3C//DTD SVG 1.1//EN" "http://www.w3.org/Graphics/SVG/1.1/DTD/svg11.dtd">
<svg version="1.1" id="Ebene_1" xmlns="http://www.w3.org/2000/svg" xmlns:xlink="http://www.w3.org/1999/xlink" x="0px" y="0px"
	 width="283px" height="380.135px" viewBox="0 0 283 380.135" enable-background="new 0 0 283 380.135" xml:space="preserve">
<g id="Zettel">
	<path id="Zettel_1_" fill="#F2F2F2" d="M81.844,15.573l-1.283,0.206l-2.716-0.557c-0.702,0.484-1.355,1.018-1.913,1.672
		c1.066,0.12,2.131,0.096,3.174-0.073c-0.024,0-0.024,0-0.048,0.024c0.362,0.169,0.751,0.219,1.163,0.145
		c-2.035,0.824-3.053,1.988-4.87,3.174c2.933-0.482,3.343-0.072,5.378-1.549c-0.872,0.726-2.035,1.815-2.908,2.47
		c1.02-0.485,1.745-0.801,2.448-1.188c-0.581,0.557-1.14,1.137-1.817,1.815c0.146,0.363,1.6-0.197,1.6,0.191
		c-1.72,1.551-2.374,3.531-4.167,5.397c0.436,0.508,1.574,0.305,1.744,0.524c-0.388,0.727-1.744,0.777-2.205,1.723
		c0.145-0.122,2.083-0.938,2.326-1.106c-0.849,0.969-2.206,2.511-2.908,3.407c0.074,0,0.437,2.077,0.8,2.122
		C75.206,34.238,74.746,37,74.625,37h1.138c-0.339,0-0.679-1.064-1.113-0.555c0.168-0.098,2.422-1.665,3.101-1.834
		c-1.043,1.479-1.552,2.902-2.277,4.14c0.218,1.163,1.792-0.293,2.131,0.507c0.05,1.283-1.841,1.463-1.913,2.578
		c0.8-0.41,2.085-0.551,2.956-0.914c-1.285,0.631-1.525,1.275-2.593,2.051c0.339,0.096,0.653,0.08,0.97-0.016
		c-1.962,1.913-2.229,2-2.714,4.231c0.242,0.022,0.412-0.079,0.484-0.297c0.558,0.63,0.702,1.014,0.702,1.208
		c0.122-0.025,0.316-0.05,0.534-0.05c-0.704,0.801-1.284,2.568-1.817,3.15c-0.121,0-1.987,1.356-2.254,1.551
		c0.242,0.17,0.437,0.218,0.653,0.194c-0.751,0.774-1.283,1.573-1.84,2.131c0.677-0.315,1.357-1.356,2.06-1.574
		c0.944,0.362,0.509,1.211,2.397,0.944c-1.721,1.309-2.592,3.635-4.021,4.919c-0.268,0.022,2.47,0.751,2.373,0.677
		c0.145-0.218,0.8-1.187,0.97-1.259c-0.073,0.604-1.333,2.253-1.575,2.906c0.29-0.072,3.49-0.557,3.73-0.557
		c-2.13,3.126-8.964,5.888-11.46,9.667c1.892-0.993,2.908-1.285,4.337-2.52c-0.482,0.63-0.919,1.358-1.453,1.744
		c-1.913,0.68-2.642,1.454-4.191,3.15c2.787,0.654,2.107,1.43,4.096,0.774c-1.382,1.163-3.028,2.446-4.579,3.853
		c1.163-0.194,2.567,0.267,3.706,0.073c-0.412,0.678-1.017,1.479-1.695,2.035c0.387,0.266,0.944-0.364,0.847,0.46
		c-1.017,0.604-1.985,1.987-3.075,2.64c0.558-0.17,2.203-0.266,3.075-0.58c-0.944,0.849-1.841,2.375-2.906,3.222
		c0.532,0,1.113,0.049,1.647,0.024c-1.551,0.558-3.054,1.453-4.265,2.52c0.849-0.242,2.302-0.291,3.246-0.58
		c-1.331,0.872-2.567,1.841-3.779,2.834c0.389-0.194,0.703-0.485,1.115-0.631c-1.188,0.776-2.544,1.453-3.78,2.157
		c0-0.023-0.122-0.073-0.122-0.121c0.026-0.025-0.07-0.049-0.168-0.073c-0.024,0-1.651,0-1.675-0.023
		c-0.023,0-1.626-0.024-1.626-0.024c0-0.023,0-0.023,0-0.023c0-0.026,1.603-0.05,1.626-0.074c0.024,0,0.85-0.024,0.874-0.049
		l0.475-0.071c0.072-0.05,0.345-0.098,0.442-0.146c0.074-0.048,0.269-0.071,0.341-0.12c0.023-0.025,0.099-0.025,0.124-0.048
		c0.024,0,0.073-0.025,0.073-0.025c0,0.025,0.254,0.048,0.254,0.073c0.097-0.146,0.201-0.29,0.297-0.412
		c-0.774-0.194-3.639-0.096-4.68,0.17L5,324.418v1.77c0,0.07,1.852,0.17,1.801,0.242l0.477,1.721l0.445,0.119
		c1.696-1.111,3.576-2.277,5.273-3.342c0.582-0.34,1.281-0.68,1.861-0.992c-1.355,1.477-3.042,2.93-4.47,4.404
		c1.163-0.506,2.476-0.699,3.639-1.182c-1.283,1.182-2.893,2.422-4.25,3.605c1.769-0.967,3.301-2.424,5.045-2.564
		c-0.558,0.529-0.915,1.135-1.447,1.74c1.357-0.994,3.03-1.693,4.701-1.936c-0.194,0.508-0.484,0.994-0.848,1.453
		c-0.169,0.17-0.389,0.34-0.533,0.535c-0.896,0.629-1.865,1.258-2.713,1.816c0.704-0.439,1.986-0.875,2.035-1.287l0.098,0.023
		c0,0.053,0.07,0.076,0.07,0.076c-0.459,0.482-0.847,0.994-1.211,1.525c2.277-0.412,5.016-1.455,7.123-1.162
		c-0.677,0.727-1.331,1.912-1.938,2.494c1.14-0.775,2.302-1.721,3.198-2.688c1.404-1.068,3.246-2.033,4.821-1.939
		c-1.429,1.43-2.979,2.688-4.726,3.682c0.365,0.047,0.849,0,1.261,0.023c-0.678,0.824-1.042,2.111-2.155,2.934
		c1.235-0.605,2.98-0.705,4.337-1.117c-0.752,0.824-0.874,2.4-1.479,3.322c0.751-0.1,1.622,0.148,2.325,0.023
		c-0.822,1.258-1.791,2.494-2.52,3.805l0.098,0.023l2.06,0.582l0.701,2.281l0.268,2.59h0.024l168.238,31.305l13.593-9.477
		l60.812-317.107L81.844,15.573z"/>
	<polygon id="Eselsohr" opacity="0.6" fill="#CCCCCC" points="210.204,367.785 196.611,376.219 198.835,365.951 	"/>
	<path id="Klebestreifen__x28_Unten_Links_1_x29_" opacity="0.5" fill="#CCCCCC" d="M3.764,314.174
		c0.039-0.133,0.059-0.26,0.054-0.389c-0.208-0.023-0.406,0.08-0.57,0.217l-0.011-0.047c0.164-0.236,0.382-0.463,0.534-0.756
		c-0.198,0.098-0.416,0.225-0.628,0.377L3.02,313.09c0.236-0.336,0.533-0.658,0.811-0.951c-0.162,0.037-0.382,0.164-0.58,0.266
		c0.08-0.266,0.198-0.498,0.347-0.711c-0.064,0.043-0.152,0.09-0.236,0.16c0.034-0.359,0.344-0.633,0.544-0.938
		c-0.433,0.186-0.882,0.371-1.284,0.574l-0.042-0.166c0.165-0.24,0.087-0.459,0.289-0.658c-0.193,0.123,1.495-0.455-0.804,0.389
		l-0.012-0.023c2.232-0.961,0.63-0.492,0.745-0.748c-0.175,0.094-0.264,0.209-0.429,0.352c0.158-0.291,0.429-0.521,0.612-0.791
		c-0.154,0.09-0.316,0.131-0.479,0.27c0.099-0.199,0.238-0.402,0.337-0.602c-0.089,0.047-0.197,0.07-0.306,0.152
		c0.145-0.236,0.275-0.521,0.362-0.768c-0.168,0.119-0.34,0.236-0.499,0.396c0.18-0.293,0.397-0.623,0.526-0.896
		c-0.323,0.203-0.599,0.496-0.88,0.766l-0.023-0.094c0.187-0.346,0.44-0.635,0.69-0.947c-0.125,0.107-0.262,0.166-0.408,0.275
		c0.167-0.318,0.43-0.678,0.493-1.023c-0.213,0.033-0.404,0.174-0.529,0.383c0.113-0.25,0.308-0.473,0.454-0.686
		c-0.23,0.08-0.393,0.223-0.551,0.383c0.254-0.285,0.452-0.686,0.652-0.982c-0.246,0.008-0.429,0.184-0.634,0.357
		c0.093-0.121,0.08-0.373,0.123-0.506c-0.107,0.076-0.288,0.148-0.386,0.27c0.064-0.24,0.185-0.473,0.203-0.699
		c-0.063,0.041-0.129,0.09-0.192,0.123c0.003-0.279,0.082-0.568,0.168-0.82c-0.17,0.125-0.358,0.271-0.525,0.385
		c0.2-0.271,0.516-0.631,0.669-0.914c-0.125,0.104-0.305,0.176-0.421,0.303c0.05-0.289,0.245-0.709,0.355-1.059
		c-0.13,0.08-0.482-0.209-0.604-0.082c0.045-0.334-0.173-0.975,0.033-1.234l0.021-0.023c-0.015,0.014,0.162,0.203,0.107,0.193
		c-0.086,0.053,0.003,0.232-0.029,0.313c0.036-0.061,0.135-0.084,0.174-0.146c0.123-0.203,0.26-0.369,0.358-0.574l30.699-7.621
		c-0.035,0.061-0.077,0.156-0.135,0.217c-0.107,0.18-0.234,0.359-0.311,0.559c0.275-0.193,0.646-0.535,0.945-0.629l0.065,0.256
		c-0.19,0.449-0.595,0.922-0.846,1.234c0.348-0.137,0.628-0.402,0.927-0.602c-0.029,0.379-0.309,0.748-0.382,1.164
		c0.205-0.174,0.381-0.369,0.606-0.473c-0.027,0.279-0.381,0.666-0.521,1.004c0.275-0.195,0.383-0.545,0.631-0.66l0.042,0.168
		c-0.265,0.34-0.547,0.709-0.645,1.131c0.232-0.18,0.501-0.396,0.807-0.498l0.013,0.066c-0.094,0.328-0.389,0.648-0.476,0.998
		c0.063-0.041,0.182-0.07,0.262-0.141c-0.112,0.35-0.304,0.676-0.417,1.025c0.185-0.168,0.397-0.32,0.647-0.311
		c-0.152,0.188-0.298,0.4-0.367,0.643c0.161-0.166,0.351-0.313,0.586-0.369c-0.28,0.393-0.654,0.805-0.861,1.264
		c0.308-0.08,0.562-0.264,0.825-0.406c-0.092,0.244-0.289,0.543-0.419,0.826c0.183-0.17,0.39-0.32,0.641-0.334
		c-0.103,0.303-0.384,0.566-0.59,0.846c0.284-0.17,0.527-0.377,0.799-0.496c-0.227,0.303-0.385,0.643-0.556,0.959
		c0.093-0.121,0.27-0.211,0.346-0.311c-0.113,0.15-0.146,0.336-0.227,0.506c0.299-0.123,0.573-0.416,0.846-0.512l0.039,0.143
		c-0.201,0.303-0.374,0.592-0.55,0.914c0.135-0.16,0.356-0.289,0.535-0.359c-0.138,0.256-0.246,0.51-0.418,0.729
		c0.151-0.109,0.349-0.213,0.524-0.309c-0.223,0.309-0.53,0.682-0.814,0.957c0.248-0.215,0.566-0.342,0.894-0.451
		c-0.091,0.146-0.215,0.355-0.327,0.502c0.142-0.127,0.265-0.137,0.381-0.189c-0.308,0.303-0.445,0.738-0.739,1.057
		c0.159-0.162,0.386-0.248,0.628-0.275c-0.069,0.107-0.095,0.293-0.152,0.383c0.248-0.113,0.431-0.279,0.673-0.416
		c-0.195,0.32-0.559,0.785-0.875,0.914c0.218-0.129,0.438-0.256,0.66-0.365c-0.123,0.229-0.306,0.479-0.509,0.678
		c0.215-0.156,0.467-0.236,0.685-0.27c-0.188,0.246-0.47,0.52-0.741,0.633c0.325-0.104,0.636-0.26,0.98-0.27
		c-0.122,0.303-0.505,0.578-0.824,0.805L3.394,314.59l-0.016-0.072C3.494,314.395,3.619,314.287,3.764,314.174z"/>
	<path id="Klebestreifen__x28_Oben_Links_x29_" opacity="0.5" fill="#CCCCCC" d="M84.34,2.471c0.116,0.082,0.23,0.142,0.352,0.175
		c0.088-0.188,0.06-0.408-0.023-0.609l0.049,0.005c0.175,0.232,0.321,0.512,0.544,0.749c-0.028-0.221-0.081-0.468-0.157-0.718
		l0.507,0.042c0.239,0.335,0.451,0.717,0.642,1.074c0.012-0.17-0.039-0.416-0.069-0.638c0.23,0.164,0.407,0.35,0.561,0.557
		c-0.019-0.074-0.034-0.173-0.073-0.273c0.327,0.148,0.49,0.525,0.71,0.811c-0.034-0.464-0.067-0.952-0.127-1.395l0.169,0.014
		c0.176,0.232,0.35,0.797,0.477,1.05C87.843,3.092,87.79,5,87.736,3h0.023c0.199,2,0.32,0.182,0.523,0.369
		c-0.031-0.193-0.087-0.596-0.167-0.798C88.338,2.81,88.486,3,88.685,3.26c-0.035-0.173-0.021-0.41-0.101-0.612
		c0.158,0.159,0.313,0.321,0.469,0.478c-0.016-0.098-0.005-0.229-0.044-0.356c0.178,0.211,0.403,0.418,0.608,0.582
		c-0.057-0.2-0.113-0.402-0.217-0.605c0.22,0.262,0.462,0.573,0.688,0.786c-0.091-0.372-0.279-0.728-0.445-1.083l0.096,0.007
		c0.269,0.289,0.46,0.621,0.675,0.956c-0.061-0.151-0.072-0.298-0.132-0.473c0.248,0.263,0.508,0.624,0.813,0.795
		c0.039-0.215-0.039-0.44-0.193-0.623c0.202,0.187,0.353,0.442,0.506,0.649c-0.005-0.243-0.087-0.444-0.189-0.646
		c0.189,0.331,0.505,0.649,0.724,0.935c0.069-0.238-0.035-0.464-0.134-0.716c0.085,0.128,0.322,0.196,0.437,0.279
		c-0.037-0.126-0.045-0.32-0.132-0.45c0.208,0.139,0.388,0.326,0.598,0.416c-0.018-0.073-0.037-0.151-0.055-0.225
		c0.261,0.094,0.514,0.261,0.719,0.425c-0.058-0.199-0.135-0.425-0.192-0.624c0.197,0.284,0.431,0.692,0.652,0.93
		c-0.058-0.151-0.067-0.346-0.152-0.499c0.257,0.143,0.595,0.462,0.893,0.682c-0.036-0.149,0.039-0.191-0.045-0.345
		c0.305,0.147,0.601,0.391,0.847,0.63l0.021,0.026c0.029-0.047,0.06-0.117,0.086-0.163c-0.015-0.099-0.057-0.176-0.125-0.229
		c0.044,0.051,0.112,0.105,0.157,0.158c0.155,0.183,0.313,0.341,0.468,0.501l-2.609,31.509c-0.043-0.052-0.111-0.13-0.151-0.207
		c-0.134-0.156-0.265-0.34-0.424-0.473c0.094,0.323,0.302,0.78,0.299,1.095l-0.267-0.021c-0.361-0.322-0.684-0.858-0.896-1.193
		c0.017,0.366,0.181,0.721,0.273,1.068c-0.351-0.15-0.611-0.536-0.983-0.736c0.102,0.251,0.229,0.479,0.257,0.725
		c-0.258-0.117-0.512-0.577-0.783-0.817c0.095,0.323,0.392,0.542,0.419,0.812l-0.169-0.015c-0.236-0.359-0.498-0.745-0.866-0.972
		c0.096,0.277,0.216,0.603,0.215,0.919l-0.074-0.006c-0.275-0.193-0.486-0.575-0.786-0.771c0.019,0.074,0.009,0.194,0.048,0.296
		c-0.297-0.219-0.541-0.506-0.84-0.727c0.104,0.228,0.18,0.477,0.089,0.714c-0.13-0.208-0.283-0.414-0.49-0.552
		c0.105,0.202,0.184,0.428,0.163,0.669c-0.284-0.389-0.558-0.873-0.921-1.219c-0.025,0.315,0.073,0.613,0.119,0.911
		c-0.204-0.164-0.424-0.449-0.649-0.663c0.104,0.228,0.181,0.478,0.111,0.714c-0.251-0.191-0.416-0.546-0.61-0.828
		c0.068,0.322,0.188,0.622,0.213,0.917c-0.218-0.311-0.485-0.575-0.732-0.839c0.087,0.128,0.12,0.326,0.185,0.43
		c-0.109-0.155-0.271-0.242-0.408-0.376c0.023,0.319,0.212,0.675,0.212,0.966l-0.144-0.012c-0.221-0.284-0.44-0.545-0.688-0.811
		c0.107,0.179,0.16,0.427,0.167,0.622c-0.2-0.212-0.401-0.398-0.556-0.629c0.06,0.174,0.09,0.396,0.122,0.593
		c-0.218-0.311-0.475-0.721-0.642-1.074c0.122,0.303,0.143,0.644,0.137,0.984c-0.108-0.131-0.264-0.314-0.374-0.469
		c0.084,0.177,0.049,0.295,0.065,0.418c-0.188-0.38-0.555-0.652-0.767-1.035c0.104,0.202,0.109,0.446,0.065,0.686
		c-0.088-0.104-0.252-0.189-0.319-0.269c0.026,0.269,0.13,0.496,0.181,0.77c-0.244-0.289-0.569-0.776-0.589-1.12
		c0.054,0.248,0.105,0.494,0.133,0.741c-0.18-0.186-0.351-0.444-0.476-0.698c0.077,0.25,0.077,0.519,0.036,0.734
		c-0.174-0.258-0.339-0.612-0.362-0.906c-0.005,0.341,0.041,0.686-0.06,1.017c-0.251-0.215-0.383-0.664-0.497-1.039l2.706-32.691
		l0.071,0.006C84.222,2.146,84.283,2.297,84.34,2.471z"/>
	<path id="Klebestreifen__x28_Oben_Rechts_x29_" opacity="0.5" fill="#CCCCCC" d="M276.775,42.418
		c-0.006,0.141,0.009,0.27,0.048,0.389c0.204-0.032,0.373-0.18,0.493-0.358l0.023,0.042c-0.098,0.274-0.247,0.551-0.319,0.87
		c0.165-0.147,0.344-0.327,0.509-0.53l0.245,0.443c-0.141,0.388-0.342,0.774-0.533,1.132c0.146-0.085,0.323-0.266,0.491-0.412
		c-0.009,0.281-0.063,0.532-0.15,0.775c0.052-0.058,0.124-0.126,0.186-0.214c0.06,0.354-0.166,0.7-0.278,1.041
		c0.366-0.286,0.755-0.585,1.088-0.882l0.084,0.147c-0.096,0.276,0.271,0.241,0.132,0.486c0.153-0.17-1.072,0.586,0.911-0.807
		l0.014,0.02c-1.902,1.513-0.715,0.864-0.757,1.137c0.144-0.137,0.077-0.155,0.2-0.335c-0.075,0.317-0.335,0.67-0.442,0.979
		c0.126-0.124,0.239-0.183,0.362-0.36c-0.045,0.219-0.139,0.468-0.184,0.686c0.072-0.068,0.165-0.116,0.248-0.221
		c-0.076,0.268-0.135,0.577-0.154,0.839c0.132-0.158,0.265-0.313,0.376-0.514c-0.097,0.329-0.222,0.706-0.274,1.01
		c0.262-0.283,0.447-0.637,0.65-0.972l0.046,0.085c-0.09,0.383-0.258,0.729-0.419,1.093c0.093-0.135,0.207-0.226,0.319-0.372
		c-0.079,0.352-0.235,0.768-0.208,1.117c0.2-0.087,0.346-0.278,0.411-0.508c-0.042,0.272-0.173,0.54-0.259,0.782
		c0.199-0.14,0.322-0.317,0.431-0.517c-0.169,0.341-0.257,0.78-0.372,1.121c0.236-0.075,0.366-0.287,0.521-0.511
		c-0.06,0.143,0.016,0.379,0.012,0.52c0.082-0.102,0.239-0.218,0.3-0.359c0,0.249-0.055,0.502-0.015,0.727
		c0.053-0.056,0.104-0.114,0.157-0.168c0.068,0.268,0.068,0.568,0.049,0.832c0.132-0.159,0.274-0.35,0.409-0.508
		c-0.125,0.321-0.335,0.743-0.409,1.061c0.093-0.134,0.248-0.249,0.329-0.406c0.026,0.295-0.055,0.751-0.069,1.121
		c0.104-0.113,0.18-0.072,0.264-0.228c0.044,0.334,0.006,0.715-0.052,1.055l-0.013,0.03c0.055-0.003,0.13-0.015,0.186-0.018
		c0.072-0.069,0.113-0.146,0.12-0.231c-0.021,0.063-0.026,0.153-0.048,0.219c-0.063,0.23-0.108,0.448-0.153,0.667L253.65,68.779
		c0.018-0.065,0.044-0.165,0.084-0.239c0.057-0.202,0.137-0.409,0.158-0.616c-0.216,0.258-0.479,0.685-0.742,0.855l-0.131-0.232
		c0.067-0.481,0.334-1.044,0.492-1.411c-0.296,0.221-0.496,0.556-0.735,0.822c-0.068-0.374,0.104-0.804,0.066-1.226
		c-0.152,0.224-0.272,0.46-0.463,0.618c-0.046-0.28,0.194-0.746,0.245-1.105c-0.216,0.257-0.23,0.625-0.44,0.801l-0.083-0.149
		c0.168-0.398,0.344-0.828,0.326-1.261c-0.177,0.232-0.38,0.513-0.646,0.688l-0.036-0.061c0.008-0.338,0.209-0.727,0.203-1.085
		c-0.051,0.058-0.156,0.114-0.218,0.206c0.018-0.37,0.118-0.734,0.137-1.104c-0.134,0.213-0.299,0.414-0.545,0.471
		c0.1-0.223,0.186-0.465,0.187-0.716c-0.11,0.203-0.255,0.393-0.469,0.512c0.169-0.452,0.42-0.95,0.502-1.446
		c-0.274,0.155-0.472,0.403-0.688,0.607c0.021-0.262,0.135-0.602,0.187-0.909c-0.13,0.212-0.293,0.413-0.529,0.492
		c0.019-0.318,0.222-0.651,0.35-0.972c-0.23,0.237-0.413,0.506-0.643,0.69c0.134-0.354,0.203-0.725,0.286-1.075
		c-0.057,0.141-0.203,0.278-0.253,0.392c0.068-0.177,0.05-0.361,0.087-0.548c-0.255,0.195-0.445,0.551-0.686,0.713l-0.071-0.127
		c0.113-0.34,0.208-0.669,0.29-1.021c-0.087,0.187-0.267,0.369-0.422,0.483c0.065-0.284,0.105-0.556,0.215-0.81
		c-0.116,0.144-0.281,0.295-0.428,0.43c0.136-0.354,0.335-0.798,0.539-1.132c-0.186,0.269-0.457,0.477-0.745,0.663
		c0.049-0.162,0.116-0.396,0.183-0.571c-0.104,0.167-0.221,0.204-0.316,0.284c0.216-0.368,0.236-0.822,0.438-1.211
		c-0.112,0.2-0.311,0.336-0.534,0.434c0.038-0.129,0.016-0.313,0.047-0.412c-0.211,0.171-0.343,0.382-0.54,0.577
		c0.104-0.363,0.329-0.903,0.604-1.112c-0.176,0.182-0.353,0.364-0.542,0.523c0.058-0.254,0.174-0.539,0.315-0.784
		c-0.167,0.201-0.389,0.353-0.59,0.438c0.116-0.287,0.317-0.622,0.55-0.805c-0.286,0.186-0.546,0.416-0.876,0.515
		c0.037-0.326,0.339-0.685,0.584-0.989l28.668-15.944l0.034,0.063C276.979,42.137,276.886,42.273,276.775,42.418z"/>
	<path id="Klebestreifen__x28_Unten_Rechts_x29_" opacity="0.5" fill="#CCCCCC" d="M229.259,351.285
		c-0.112,0.086-0.202,0.18-0.269,0.285c0.156,0.137,0.374,0.17,0.592,0.15l-0.019,0.043c-0.273,0.1-0.582,0.16-0.874,0.313
		c0.221,0.033,0.469,0.053,0.731,0.053l-0.183,0.473c-0.391,0.137-0.815,0.227-1.213,0.307c0.155,0.057,0.409,0.082,0.63,0.119
		c-0.224,0.17-0.453,0.289-0.696,0.379c0.08,0,0.18,0.014,0.284,0.004c-0.233,0.275-0.646,0.318-0.979,0.449
		c0.454,0.1,0.931,0.209,1.374,0.275l-0.061,0.16c-0.277,0.1-0.757,0.322-1.036,0.369c0.229,0.01-1.541-0.496,0.459,0.148v0.023
		c-2-0.502-0.383,0.041-0.619,0.18c0.193,0.021,0.542-0.02,0.76-0.033c-0.296,0.141-0.552,0.174-0.854,0.287
		c0.175,0.02,0.386,0.076,0.603,0.053c-0.197,0.109-0.406,0.195-0.602,0.299c0.1,0.014,0.22,0.057,0.356,0.053
		c-0.257,0.113-0.523,0.268-0.739,0.42c0.207,0,0.421,0.004,0.646-0.037c-0.317,0.131-0.687,0.277-0.95,0.43
		c0.383,0.02,0.777-0.063,1.163-0.113l-0.037,0.086c-0.352,0.174-0.726,0.264-1.108,0.373c0.165-0.02,0.306,0.02,0.491,0.01
		c-0.318,0.16-0.743,0.307-0.993,0.553c0.191,0.096,0.431,0.086,0.651-0.01c-0.236,0.143-0.525,0.209-0.768,0.299
		c0.235,0.066,0.45,0.049,0.675,0.004c-0.373,0.086-0.766,0.299-1.103,0.428c0.206,0.131,0.454,0.1,0.724,0.074
		c-0.147,0.045-0.278,0.256-0.392,0.342c0.129-0.004,0.319,0.041,0.469,0c-0.193,0.16-0.422,0.277-0.571,0.453
		c0.074,0.004,0.156,0.004,0.231,0.016c-0.165,0.221-0.396,0.412-0.611,0.566c0.207,0,0.445-0.008,0.649-0.008
		c-0.323,0.107-0.784,0.217-1.076,0.359c0.164-0.016,0.351,0.031,0.521-0.006c-0.206,0.209-0.612,0.436-0.906,0.662
		c0.156,0.006,0.171,0.09,0.345,0.059c-0.23,0.244-0.551,0.457-0.848,0.627l-0.029,0.012c0.036,0.041,0.093,0.094,0.13,0.131
		c0.101,0.01,0.182-0.004,0.256-0.057c-0.063,0.029-0.135,0.082-0.199,0.105c-0.217,0.098-0.416,0.203-0.61,0.307l-29.444-11.518
		c0.064-0.033,0.158-0.076,0.238-0.09c0.194-0.086,0.403-0.156,0.579-0.27c-0.337-0.006-0.835,0.066-1.135-0.027l0.096-0.248
		c0.416-0.26,1.02-0.412,1.402-0.52c-0.359-0.09-0.745-0.033-1.104-0.043c0.245-0.295,0.688-0.436,0.988-0.729
		c-0.271,0.023-0.525,0.08-0.77,0.033c0.185-0.213,0.698-0.322,1.006-0.516c-0.334-0.006-0.627,0.223-0.896,0.17l0.06-0.154
		c0.413-0.131,0.857-0.266,1.181-0.555c-0.29,0.014-0.637,0.037-0.941-0.063l0.026-0.061c0.266-0.213,0.69-0.303,0.965-0.535
		c-0.079-0.006-0.191-0.053-0.298-0.039c0.296-0.221,0.642-0.377,0.938-0.6c-0.248,0.033-0.51,0.033-0.711-0.119
		c0.234-0.061,0.476-0.15,0.673-0.313c-0.228,0.043-0.467,0.053-0.691-0.033c0.453-0.16,0.999-0.283,1.434-0.533
		c-0.298-0.115-0.611-0.109-0.909-0.143c0.218-0.152,0.55-0.279,0.822-0.436c-0.249,0.033-0.506,0.037-0.718-0.1
		c0.256-0.186,0.645-0.242,0.971-0.346c-0.329-0.027-0.65,0-0.938-0.057c0.359-0.123,0.686-0.303,1.01-0.463
		c-0.146,0.041-0.343,0.018-0.462,0.053c0.177-0.059,0.311-0.191,0.476-0.281c-0.313-0.07-0.71,0.004-0.984-0.074l0.051-0.139
		c0.335-0.127,0.646-0.264,0.973-0.426c-0.199,0.053-0.455,0.029-0.642-0.018c0.262-0.129,0.495-0.27,0.761-0.346
		c-0.187,0-0.406-0.033-0.604-0.057c0.357-0.123,0.828-0.25,1.218-0.309c-0.327,0.029-0.662-0.047-0.988-0.15
		c0.157-0.066,0.379-0.162,0.557-0.225c-0.194,0.029-0.298-0.041-0.422-0.061c0.424-0.07,0.788-0.346,1.214-0.436
		c-0.225,0.043-0.456-0.023-0.674-0.137c0.123-0.051,0.254-0.184,0.348-0.223c-0.266-0.057-0.511-0.023-0.79-0.053
		c0.348-0.15,0.907-0.314,1.243-0.24c-0.251-0.018-0.505-0.041-0.749-0.086c0.232-0.113,0.525-0.207,0.807-0.254
		c-0.263,0-0.521-0.076-0.714-0.176c0.293-0.094,0.684-0.15,0.971-0.09c-0.325-0.104-0.669-0.156-0.954-0.346
		c0.276-0.18,0.742-0.18,1.136-0.18l30.548,11.953l-0.029,0.066C229.608,351.262,229.442,351.277,229.259,351.285z"/>
	<path id="Klebestreifen__x28_Unten_Links_2_x29_" opacity="0.5" fill="#CCCCCC" d="M17.622,345.287
		c-0.053-0.129-0.116-0.242-0.199-0.338c-0.177,0.109-0.27,0.313-0.312,0.525l-0.038-0.033c-0.019-0.289,0.009-0.6-0.052-0.922
		c-0.092,0.199-0.185,0.436-0.257,0.686l-0.4-0.307c-0.023-0.412,0.009-0.848,0.047-1.25c-0.104,0.133-0.196,0.369-0.29,0.568
		c-0.104-0.262-0.154-0.512-0.17-0.771c-0.022,0.074-0.063,0.164-0.087,0.27c-0.193-0.303-0.122-0.709-0.152-1.07
		c-0.227,0.412-0.463,0.838-0.651,1.246l-0.135-0.105c-0.022-0.293-0.218-0.412-0.183-0.695c-0.074,0.219,0.893-1.283-0.392,0.805
		l-0.021-0.01c1.153-2.143,0.187-0.781,0.12-1.049c-0.08,0.184-0.078,0.326-0.12,0.537c-0.056-0.32,0.015-0.672-0.012-0.998
		c-0.064,0.166-0.165,0.299-0.205,0.512c-0.046-0.219-0.064-0.467-0.109-0.682c-0.041,0.09-0.11,0.182-0.146,0.309
		c-0.035-0.275-0.106-0.578-0.192-0.828c-0.061,0.199-0.12,0.396-0.145,0.623c-0.039-0.34-0.075-0.738-0.146-1.035
		c-0.126,0.363-0.161,0.762-0.215,1.15l-0.074-0.063c-0.067-0.383-0.051-0.771-0.046-1.17c-0.029,0.166-0.104,0.289-0.148,0.469
		c-0.066-0.35-0.085-0.799-0.251-1.105c-0.145,0.156-0.206,0.387-0.175,0.629c-0.068-0.27-0.054-0.563-0.07-0.824
		c-0.13,0.209-0.172,0.42-0.194,0.648c0.022-0.383-0.07-0.822-0.099-1.178c-0.187,0.16-0.222,0.406-0.275,0.672
		c-0.003-0.15-0.167-0.342-0.218-0.473c-0.034,0.127-0.133,0.297-0.133,0.449c-0.099-0.229-0.148-0.482-0.275-0.672
		c-0.025,0.072-0.047,0.146-0.076,0.219c-0.169-0.225-0.287-0.498-0.374-0.75c-0.058,0.199-0.116,0.432-0.174,0.625
		c-0.014-0.336,0.013-0.813-0.044-1.131c-0.033,0.156-0.129,0.326-0.141,0.502c-0.141-0.262-0.248-0.711-0.38-1.057
		c-0.049,0.146-0.883,0.139-0.898,0.313C8.941,338.234,8,337.871,8,337.539v-0.033c0,0.023,0.63,0.063,0.58,0.09
		c-0.034,0.09,0.332,0.176,0.357,0.26c-0.008-0.07,0.147-0.15,0.141-0.221c-0.03-0.236,0.02-0.455-0.028-0.672l19.375-25.023
		c0.01,0.07,0.047,0.17,0.041,0.256c0.027,0.209,0.046,0.43,0.109,0.629c0.096-0.322,0.176-0.818,0.35-1.08l0.212,0.162
		c0.13,0.469,0.111,1.094,0.106,1.49c0.188-0.322,0.242-0.705,0.354-1.045c0.213,0.316,0.222,0.779,0.422,1.15
		c0.054-0.262,0.069-0.527,0.181-0.748c0.154,0.24,0.116,0.762,0.215,1.111c0.096-0.322-0.037-0.662,0.086-0.908l0.137,0.104
		c0.004,0.432,0.01,0.895,0.195,1.287c0.071-0.283,0.148-0.619,0.325-0.889l0.052,0.047c0.131,0.313,0.098,0.746,0.244,1.074
		c0.024-0.072,0.1-0.166,0.117-0.275c0.131,0.346,0.183,0.721,0.313,1.07c0.037-0.252,0.11-0.502,0.312-0.648
		c-0.003,0.242,0.015,0.496,0.112,0.732c0.024-0.23,0.081-0.463,0.229-0.656c0.026,0.48-0.01,1.041,0.11,1.529
		c0.19-0.258,0.272-0.559,0.394-0.834c0.082,0.25,0.112,0.605,0.186,0.912c0.036-0.25,0.105-0.494,0.293-0.662
		c0.107,0.299,0.052,0.686,0.061,1.027c0.119-0.309,0.182-0.623,0.32-0.885c0.014,0.379,0.098,0.742,0.161,1.102
		c-0.003-0.154,0.077-0.334,0.078-0.457c0.006,0.188,0.096,0.35,0.137,0.533c0.155-0.279,0.191-0.68,0.349-0.922l0.115,0.084
		c0.031,0.361,0.074,0.697,0.135,1.055c0.009-0.207,0.102-0.443,0.197-0.615c0.053,0.289,0.124,0.555,0.124,0.834
		c0.051-0.18,0.141-0.383,0.222-0.563c0.015,0.373,0.007,0.861-0.048,1.25c0.063-0.318,0.232-0.617,0.424-0.906
		c0.019,0.172,0.049,0.412,0.055,0.598c0.03-0.189,0.123-0.271,0.179-0.385c-0.051,0.428,0.108,0.854,0.075,1.289
		c0.023-0.229,0.15-0.436,0.322-0.611c0.016,0.133,0.108,0.293,0.117,0.398c0.128-0.242,0.165-0.488,0.27-0.744
		c0.048,0.373,0.051,0.961-0.117,1.26c0.09-0.236,0.183-0.475,0.292-0.695c0.046,0.254,0.055,0.563,0.022,0.846
		c0.071-0.254,0.218-0.477,0.366-0.633c0.008,0.307-0.045,0.695-0.187,0.955c0.19-0.283,0.337-0.596,0.603-0.818
		c0.091,0.313-0.042,0.762-0.148,1.141l-20.052,25.959l-0.059-0.047C17.544,345.627,17.575,345.465,17.622,345.287z"/>
</g>
</svg>
