<?xml version="1.0" encoding="utf-8"?>
<!-- Generator: Adobe Illustrator 16.0.3, SVG Export Plug-In . SVG Version: 6.00 Build 0)  -->
<!DOCTYPE svg PUBLIC "-//W3C//DTD SVG 1.1//EN" "http://www.w3.org/Graphics/SVG/1.1/DTD/svg11.dtd">
<svg version="1.1" id="Ebene_1" xmlns="http://www.w3.org/2000/svg" xmlns:xlink="http://www.w3.org/1999/xlink" x="0px" y="0px"
	 width="283px" height="380.135px" viewBox="0 0 283 380.135" enable-background="new 0 0 283 380.135" xml:space="preserve">
<g id="Zettel">
	<path fill="#F2F2F2" d="M74.65,36.447c0.06-0.08,0.12-0.12,0.18-0.12C74.74,36.397,74.67,36.438,74.65,36.447z"/>
	<path fill="#F2F2F2" d="M271.01,51.717l-1.59,8.29L218.4,326.067l-0.051,0.24l-0.729,3.85l-1.591,8.26l-1.311,6.83l-2.318,12.109
		l-2.2,11.471l-13.591,9.471l-10.029-1.87l-5.43-1.011l-2.41-0.439l-15.17-2.83l-135.2-25.149h-0.02l-0.27-2.59l-0.7-2.28
		l-2.06-0.579l-0.1-0.03c0.73-1.311,1.7-2.539,2.52-3.799c-0.7,0.118-1.57-0.121-2.32-0.031c0.6-0.92,0.72-2.489,1.47-3.319
		c-0.18,0.062-0.36,0.11-0.55,0.149c-1.25,0.311-2.71,0.451-3.78,0.971c1.11-0.82,1.47-2.11,2.15-2.93
		c-0.41-0.031-0.89,0.02-1.26-0.031c1.75-0.989,3.3-2.25,4.73-3.68c-1.58-0.09-3.42,0.871-4.82,1.939
		c-0.9,0.971-2.06,1.91-3.2,2.689c0.61-0.58,1.26-1.771,1.94-2.5c-2.11-0.289-4.85,0.75-7.13,1.17c0.37-0.539,0.76-1.049,1.21-1.529
		c0,0-0.07-0.02-0.07-0.069l-0.09-0.03c-0.05,0.42-1.33,0.851-2.04,1.291c0.85-0.562,1.82-1.19,2.71-1.82
		c0.15-0.189,0.37-0.36,0.54-0.53c0.36-0.46,0.65-0.948,0.85-1.448c-0.92,0.129-1.83,0.398-2.7,0.778
		c-0.71,0.312-1.39,0.7-2.01,1.149c0.54-0.601,0.89-1.209,1.45-1.739c-1.74,0.14-3.28,1.601-5.04,2.569
		c1.35-1.189,2.96-2.431,4.25-3.609c-1.17,0.48-2.48,0.68-3.64,1.18c1.42-1.47,3.11-2.92,4.47-4.398
		c-0.58,0.31-1.28,0.648-1.86,0.99c-1.7,1.068-3.58,2.229-5.28,3.34l-0.44-0.121l-0.48-1.719c0-0.07-1.8-0.17-1.8-0.24v-1.771
		l2.26-10.79l2.76-13.198L53.83,91.01c1.04-0.27,3.9-0.36,4.68-0.17c-0.1,0.12-0.2,0.27-0.3,0.41c0-0.02-0.25-0.05-0.25-0.07
		c0,0-0.05,0.02-0.08,0.02c-0.02,0.03-0.1,0.03-0.12,0.05c-0.07,0.05-0.27,0.07-0.34,0.12c-0.1,0.05-0.37,0.1-0.44,0.15l-0.48,0.07
		c-0.02,0.02-0.85,0.05-0.87,0.05C55.6,91.66,54,91.69,54,91.71c0,0,0,0,0,0.02c0,0,1.6,0.03,1.63,0.03
		c0.02,0.02,1.65,0.02,1.67,0.02c0.1,0.03,0.2,0.05,0.17,0.07c0,0.05,0.12,0.1,0.12,0.13c1.24-0.71,2.6-1.39,3.78-2.16
		c-0.41,0.14-0.72,0.44-1.11,0.63c1.21-0.99,2.45-1.96,3.78-2.83c-0.95,0.28-2.4,0.33-3.25,0.58c1.21-1.07,2.71-1.97,4.27-2.52
		c-0.54,0.02-1.12-0.03-1.65-0.03c1.06-0.85,1.96-2.37,2.9-3.22c-0.87,0.31-2.51,0.41-3.07,0.58c1.09-0.65,2.06-2.04,3.07-2.64
		c0.1-0.82-0.46-0.19-0.84-0.46c0.68-0.56,1.28-1.36,1.69-2.04c-1.14,0.2-2.54-0.26-3.7-0.07c1.55-1.41,3.19-2.69,4.58-3.85
		c-1.99,0.65-1.31-0.12-4.1-0.78c1.55-1.69,2.28-2.47,4.19-3.15c0.54-0.38,0.97-1.11,1.45-1.74c-1.43,1.24-2.44,1.53-4.33,2.52
		c2.49-3.78,9.33-6.54,11.46-9.67c-0.24,0-3.44,0.49-3.73,0.56c0.24-0.65,1.5-2.3,1.57-2.91c-0.17,0.08-0.82,1.05-0.97,1.26
		c0.1,0.08-2.64-0.65-2.37-0.67c1.43-1.29,2.3-3.61,4.02-4.92c-1.89,0.26-1.45-0.58-2.4-0.95c-0.7,0.22-1.38,1.26-2.06,1.58
		c0.56-0.56,1.09-1.36,1.84-2.13c-0.21,0.02-0.41-0.03-0.65-0.2c0.27-0.19,2.13-1.55,2.25-1.55c0.54-0.58,1.12-2.35,1.82-3.15
		c-0.22,0-0.41,0.03-0.53,0.05c0-0.19-0.15-0.58-0.71-1.21c-0.07,0.22-0.24,0.32-0.48,0.3c0.49-2.23,0.75-2.32,2.71-4.23
		c-0.31,0.1-0.63,0.11-0.96,0.02c1.06-0.78,1.3-1.42,2.59-2.06c-0.87,0.37-2.16,0.51-2.96,0.92c0.07-1.12,1.96-1.3,1.91-2.58
		c-0.33-0.8-1.91,0.66-2.13-0.51c0.73-1.23,1.24-2.66,2.28-4.14c-0.58,0.14-2.28,1.3-2.89,1.7c0.34-0.04,0.62,0.69,0.9,0.69h-1.14
		c0.04,0,0.11-0.28,0.21-0.67l0.01-0.01c0.2-0.83,0.51-2.17,0.8-2.35c-0.36-0.04-0.72-2.12-0.8-2.12c0.7-0.9,2.06-2.44,2.91-3.41
		c-0.24,0.17-2.18,0.99-2.33,1.11c0.46-0.95,1.82-1,2.21-1.72c-0.17-0.22-1.31-0.02-1.75-0.53c1.8-1.86,2.45-3.84,4.17-5.39
		c0-0.39-1.45,0.17-1.6-0.2c0.68-0.67,1.24-1.25,1.82-1.81c-0.7,0.39-1.43,0.7-2.45,1.19c0.87-0.66,2.04-1.75,2.91-2.47
		c-2.04,1.47-2.45,1.06-5.38,1.55c1.82-1.19,2.84-2.35,4.87-3.18c-0.41,0.08-0.8,0.03-1.16-0.14c0.02-0.03,0.02-0.03,0.05-0.03
		c-1.05,0.17-2.11,0.2-3.18,0.08c0.56-0.66,1.21-1.19,1.92-1.68l2.71,0.56l1.28-0.2l1.09,0.21l11.96,2.28l167.48,32L271.01,51.717z"
		/>
	<polygon id="Eselsohr" opacity="0.6" fill="#CCCCCC" enable-background="new    " points="210.204,367.785 196.611,376.219 
		198.835,365.951 	"/>
	<radialGradient id="SVGID_1_" cx="190.9727" cy="347.1279" r="28.3782" gradientUnits="userSpaceOnUse">
		<stop  offset="0.086" style="stop-color:#683F0E"/>
		<stop  offset="0.9409" style="stop-color:#47311F"/>
	</radialGradient>
	<path opacity="0.6" fill="url(#SVGID_1_)" enable-background="new    " d="M218.4,326.067l-0.051,0.24l-0.729,3.85
		c-2.86-2.87-7.601-7.07-9.71-5.721c-2.99,1.899-7.86,4.971-10.51,6.701c-0.121,0.079-0.25,0.148-0.36,0.229
		c-2.55,1.66-2.511,6.119-8.12,1.32c-5.609-4.801-11.92-1.94-11.92-1.94s-8.54,12.392-7.79,14.2c0.75,1.811,0.22,15.479,4.92,15.32
		c4.7-0.17,6.74,2.51,5.851,5.93c-0.899,3.41,3.109,8.24,5.631,9.07c0.68,0.229,0.959,0.68,0.97,1.159l-5.431-1.011l-2.409-0.439
		l-15.171-2.83c-0.609-3.279,10.57-8.39,4.041-12.021c-8.07-4.479-0.432-22.579,5.648-32.101c6.07-9.52,28.23-9.799,28.23-9.799
		s2.3-2.17,11.529,3.67C214.98,323.138,216.779,324.548,218.4,326.067z"/>
	<path id="Klebestreifen__x28_Unten_Links_1_x29_" opacity="0.5" fill="#CCCCCC" enable-background="new    " d="M3.764,314.174
		c0.039-0.133,0.059-0.26,0.054-0.389c-0.208-0.022-0.406,0.08-0.57,0.217l-0.011-0.047c0.164-0.235,0.382-0.463,0.534-0.756
		c-0.198,0.098-0.416,0.225-0.628,0.377L3.02,313.09c0.236-0.336,0.533-0.657,0.811-0.95c-0.162,0.036-0.382,0.164-0.58,0.266
		c0.08-0.266,0.198-0.497,0.347-0.711c-0.064,0.043-0.152,0.091-0.236,0.16c0.034-0.358,0.344-0.633,0.544-0.938
		c-0.433,0.188-0.882,0.371-1.284,0.574l-0.042-0.166c0.165-0.24,0.087-0.459,0.289-0.658c-0.193,0.123,1.495-0.455-0.804,0.391
		l-0.012-0.023c2.232-0.961,0.63-0.492,0.745-0.748c-0.175,0.094-0.264,0.209-0.429,0.352c0.158-0.291,0.429-0.521,0.612-0.791
		c-0.154,0.09-0.316,0.131-0.479,0.271c0.099-0.199,0.238-0.402,0.337-0.604c-0.089,0.047-0.197,0.07-0.306,0.152
		c0.145-0.236,0.275-0.521,0.362-0.768c-0.168,0.119-0.34,0.234-0.499,0.396c0.18-0.293,0.397-0.623,0.526-0.896
		c-0.323,0.203-0.599,0.496-0.88,0.766l-0.023-0.094c0.187-0.346,0.44-0.635,0.69-0.947c-0.125,0.107-0.262,0.166-0.408,0.275
		c0.167-0.318,0.43-0.678,0.493-1.023c-0.213,0.033-0.404,0.174-0.529,0.383c0.113-0.25,0.308-0.473,0.454-0.686
		c-0.23,0.08-0.393,0.223-0.551,0.383c0.254-0.285,0.452-0.686,0.652-0.982c-0.246,0.008-0.429,0.186-0.634,0.357
		c0.093-0.121,0.08-0.373,0.123-0.506c-0.107,0.076-0.288,0.148-0.386,0.27c0.064-0.24,0.185-0.473,0.203-0.699
		c-0.063,0.041-0.129,0.09-0.192,0.123c0.003-0.278,0.082-0.566,0.168-0.819c-0.17,0.125-0.358,0.271-0.525,0.386
		c0.2-0.271,0.516-0.631,0.669-0.914c-0.125,0.104-0.305,0.176-0.421,0.305c0.05-0.289,0.245-0.709,0.355-1.061
		c-0.13,0.08-0.482-0.209-0.604-0.082c0.045-0.334-0.173-0.977,0.033-1.232l0.021-0.023c-0.015,0.014,0.162,0.203,0.107,0.193
		c-0.086,0.053,0.003,0.23-0.029,0.313c0.036-0.061,0.135-0.084,0.174-0.146c0.123-0.203,0.26-0.369,0.358-0.574l30.699-7.621
		c-0.035,0.063-0.077,0.156-0.135,0.219c-0.107,0.18-0.234,0.357-0.311,0.561c0.275-0.193,0.646-0.535,0.945-0.631l0.065,0.258
		c-0.19,0.447-0.595,0.922-0.846,1.232c0.348-0.139,0.628-0.4,0.927-0.604c-0.029,0.379-0.309,0.748-0.382,1.164
		c0.205-0.174,0.381-0.369,0.606-0.473c-0.027,0.279-0.381,0.666-0.521,1.004c0.275-0.195,0.383-0.545,0.631-0.66l0.042,0.168
		c-0.265,0.34-0.547,0.709-0.645,1.131c0.232-0.18,0.501-0.396,0.807-0.498l0.013,0.066c-0.094,0.328-0.389,0.648-0.476,0.998
		c0.063-0.041,0.182-0.07,0.262-0.141c-0.112,0.35-0.304,0.676-0.417,1.025c0.185-0.168,0.397-0.32,0.647-0.313
		c-0.152,0.188-0.298,0.398-0.367,0.645c0.161-0.166,0.351-0.313,0.586-0.369c-0.28,0.393-0.654,0.805-0.861,1.264
		c0.308-0.08,0.562-0.264,0.825-0.406c-0.092,0.244-0.289,0.543-0.419,0.826c0.183-0.17,0.39-0.32,0.641-0.334
		c-0.103,0.303-0.384,0.566-0.59,0.846c0.284-0.17,0.527-0.377,0.799-0.496c-0.227,0.303-0.385,0.645-0.556,0.959
		c0.093-0.121,0.27-0.211,0.346-0.311c-0.113,0.15-0.146,0.336-0.227,0.506c0.299-0.123,0.573-0.416,0.846-0.512l0.039,0.143
		c-0.201,0.303-0.374,0.592-0.55,0.914c0.135-0.16,0.356-0.289,0.535-0.359c-0.138,0.256-0.246,0.512-0.418,0.729
		c0.151-0.108,0.349-0.213,0.524-0.31c-0.223,0.31-0.53,0.683-0.814,0.957c0.248-0.215,0.566-0.342,0.894-0.451
		c-0.091,0.146-0.215,0.354-0.327,0.503c0.142-0.128,0.265-0.138,0.381-0.188c-0.308,0.303-0.445,0.737-0.739,1.057
		c0.159-0.161,0.386-0.248,0.628-0.274c-0.069,0.106-0.095,0.293-0.152,0.383c0.248-0.112,0.431-0.278,0.673-0.416
		c-0.195,0.32-0.559,0.785-0.875,0.914c0.218-0.129,0.438-0.256,0.66-0.364c-0.123,0.229-0.306,0.479-0.509,0.678
		c0.215-0.155,0.467-0.235,0.685-0.271c-0.188,0.246-0.47,0.521-0.741,0.634c0.325-0.104,0.636-0.261,0.98-0.271
		c-0.122,0.303-0.505,0.578-0.824,0.805l-31.83,7.917l-0.016-0.07C3.494,314.396,3.619,314.287,3.764,314.174z"/>
	<path id="Klebestreifen__x28_Oben_Links_x29_" opacity="0.5" fill="#CCCCCC" enable-background="new    " d="M84.34,2.471
		c0.116,0.082,0.23,0.142,0.352,0.175c0.088-0.188,0.06-0.408-0.023-0.609l0.049,0.005c0.175,0.232,0.321,0.512,0.544,0.749
		c-0.028-0.221-0.081-0.468-0.157-0.718l0.507,0.042c0.239,0.335,0.451,0.717,0.642,1.074c0.012-0.17-0.039-0.416-0.069-0.638
		c0.23,0.164,0.407,0.35,0.561,0.557c-0.019-0.074-0.034-0.173-0.073-0.273c0.327,0.148,0.49,0.525,0.71,0.811
		c-0.034-0.464-0.067-0.952-0.127-1.395l0.169,0.014c0.176,0.232,0.35,0.797,0.477,1.05C87.843,3.092,87.79,5,87.736,3h0.023
		c0.199,2,0.32,0.182,0.523,0.369c-0.031-0.193-0.087-0.596-0.167-0.798C88.338,2.81,88.486,3,88.685,3.26
		c-0.035-0.173-0.021-0.41-0.101-0.612c0.158,0.159,0.313,0.321,0.469,0.478c-0.016-0.098-0.005-0.229-0.044-0.356
		c0.178,0.211,0.403,0.418,0.608,0.582c-0.057-0.2-0.113-0.402-0.217-0.605c0.22,0.262,0.462,0.573,0.688,0.786
		c-0.091-0.372-0.279-0.728-0.445-1.083l0.096,0.007c0.269,0.289,0.46,0.621,0.675,0.956c-0.061-0.151-0.072-0.298-0.132-0.473
		c0.248,0.263,0.508,0.624,0.813,0.795c0.039-0.215-0.039-0.44-0.193-0.623c0.202,0.187,0.353,0.442,0.506,0.649
		c-0.005-0.243-0.087-0.444-0.189-0.646c0.189,0.331,0.505,0.649,0.724,0.935c0.069-0.238-0.035-0.464-0.134-0.716
		c0.085,0.128,0.322,0.196,0.437,0.279c-0.037-0.126-0.045-0.32-0.132-0.45c0.208,0.139,0.388,0.326,0.598,0.416
		c-0.018-0.073-0.037-0.151-0.055-0.225c0.261,0.094,0.514,0.261,0.719,0.425c-0.058-0.199-0.135-0.425-0.192-0.624
		c0.197,0.284,0.431,0.692,0.652,0.93c-0.058-0.151-0.067-0.346-0.152-0.499c0.257,0.143,0.595,0.462,0.893,0.682
		c-0.036-0.149,0.039-0.191-0.045-0.345c0.305,0.147,0.601,0.391,0.847,0.63L95.4,4.579c0.029-0.047,0.06-0.117,0.086-0.163
		c-0.015-0.099-0.057-0.176-0.125-0.229c0.044,0.051,0.112,0.105,0.157,0.158c0.155,0.183,0.313,0.341,0.468,0.501l-2.609,31.509
		c-0.043-0.052-0.111-0.13-0.151-0.207c-0.134-0.156-0.265-0.34-0.424-0.473c0.094,0.323,0.302,0.78,0.299,1.095l-0.267-0.021
		c-0.361-0.322-0.684-0.858-0.896-1.193c0.017,0.366,0.181,0.721,0.273,1.068c-0.351-0.15-0.611-0.536-0.983-0.736
		c0.102,0.251,0.229,0.479,0.257,0.725c-0.258-0.117-0.512-0.577-0.783-0.817c0.095,0.323,0.392,0.542,0.419,0.812l-0.169-0.015
		c-0.236-0.359-0.498-0.745-0.866-0.972c0.096,0.277,0.216,0.603,0.215,0.919l-0.074-0.006c-0.275-0.193-0.486-0.575-0.786-0.771
		c0.019,0.074,0.009,0.194,0.048,0.296c-0.297-0.219-0.541-0.506-0.84-0.727c0.104,0.228,0.18,0.477,0.089,0.714
		c-0.13-0.208-0.283-0.414-0.49-0.552c0.105,0.202,0.184,0.428,0.163,0.669c-0.284-0.389-0.558-0.873-0.921-1.219
		c-0.025,0.315,0.073,0.613,0.119,0.911c-0.204-0.164-0.424-0.449-0.649-0.663c0.104,0.228,0.181,0.478,0.111,0.714
		c-0.251-0.191-0.416-0.546-0.61-0.828c0.068,0.322,0.188,0.622,0.213,0.917c-0.218-0.311-0.485-0.575-0.732-0.839
		c0.087,0.128,0.12,0.326,0.185,0.43c-0.109-0.155-0.271-0.242-0.408-0.376c0.023,0.319,0.212,0.675,0.212,0.966l-0.144-0.012
		c-0.221-0.284-0.44-0.545-0.688-0.811c0.107,0.179,0.16,0.427,0.167,0.622c-0.2-0.212-0.401-0.398-0.556-0.629
		c0.06,0.174,0.09,0.396,0.122,0.593c-0.218-0.311-0.475-0.721-0.642-1.074c0.122,0.303,0.143,0.644,0.137,0.984
		c-0.108-0.131-0.264-0.314-0.374-0.469c0.084,0.177,0.049,0.295,0.065,0.418c-0.188-0.38-0.555-0.652-0.767-1.035
		c0.104,0.202,0.109,0.446,0.065,0.686c-0.088-0.104-0.252-0.189-0.319-0.269c0.026,0.269,0.13,0.496,0.181,0.77
		c-0.244-0.289-0.569-0.776-0.589-1.12c0.054,0.248,0.105,0.494,0.133,0.741c-0.18-0.186-0.351-0.444-0.476-0.698
		c0.077,0.25,0.077,0.519,0.036,0.734c-0.174-0.258-0.339-0.612-0.362-0.906c-0.005,0.341,0.041,0.686-0.06,1.017
		c-0.251-0.215-0.383-0.664-0.497-1.039l2.706-32.691l0.071,0.006C84.222,2.146,84.283,2.297,84.34,2.471z"/>
	<path id="Klebestreifen__x28_Oben_Rechts_x29_" opacity="0.5" fill="#CCCCCC" enable-background="new    " d="M276.775,42.418
		c-0.006,0.141,0.009,0.27,0.047,0.389c0.205-0.032,0.373-0.18,0.494-0.358l0.021,0.042c-0.098,0.274-0.247,0.551-0.318,0.87
		c0.166-0.147,0.344-0.327,0.51-0.53l0.244,0.443c-0.142,0.388-0.342,0.774-0.533,1.132c0.146-0.085,0.324-0.266,0.492-0.412
		c-0.01,0.281-0.063,0.532-0.15,0.775c0.053-0.058,0.124-0.126,0.186-0.214c0.062,0.354-0.166,0.7-0.277,1.041
		c0.365-0.286,0.756-0.585,1.089-0.882l0.084,0.147c-0.097,0.276,0.271,0.241,0.132,0.486c0.152-0.17-1.07,0.586,0.911-0.807
		l0.015,0.02c-1.902,1.513-0.716,0.864-0.758,1.137c0.145-0.137,0.077-0.155,0.2-0.335c-0.075,0.317-0.335,0.67-0.44,0.979
		c0.125-0.124,0.237-0.183,0.36-0.36c-0.045,0.219-0.14,0.468-0.185,0.686c0.072-0.068,0.164-0.116,0.248-0.221
		c-0.076,0.268-0.135,0.577-0.153,0.839c0.132-0.158,0.266-0.313,0.376-0.514c-0.098,0.329-0.223,0.706-0.273,1.01
		c0.262-0.283,0.446-0.637,0.649-0.972l0.046,0.085c-0.09,0.383-0.258,0.729-0.419,1.093c0.093-0.135,0.207-0.226,0.317-0.372
		c-0.078,0.352-0.233,0.768-0.207,1.117c0.199-0.087,0.347-0.278,0.41-0.508c-0.041,0.272-0.172,0.54-0.258,0.782
		c0.198-0.14,0.321-0.317,0.43-0.517c-0.168,0.341-0.256,0.78-0.371,1.121c0.236-0.075,0.365-0.287,0.521-0.511
		c-0.061,0.143,0.018,0.379,0.014,0.52c0.082-0.102,0.237-0.218,0.299-0.359c0,0.249-0.055,0.502-0.014,0.727
		c0.053-0.056,0.104-0.114,0.155-0.168c0.067,0.268,0.067,0.568,0.05,0.832c0.133-0.159,0.273-0.35,0.408-0.508
		c-0.125,0.321-0.335,0.743-0.408,1.061c0.094-0.134,0.247-0.249,0.328-0.406c0.026,0.295-0.055,0.751-0.068,1.121
		c0.104-0.113,0.181-0.072,0.265-0.228c0.044,0.334,0.006,0.715-0.052,1.055l-0.014,0.03c0.055-0.003,0.131-0.015,0.187-0.018
		c0.071-0.069,0.112-0.146,0.12-0.231c-0.021,0.063-0.026,0.153-0.049,0.219c-0.063,0.23-0.107,0.448-0.152,0.667L253.65,68.779
		c0.018-0.065,0.043-0.165,0.084-0.239c0.057-0.202,0.137-0.409,0.158-0.616c-0.218,0.258-0.479,0.685-0.742,0.855l-0.131-0.232
		c0.065-0.481,0.334-1.044,0.492-1.411c-0.298,0.221-0.496,0.556-0.736,0.822c-0.067-0.374,0.104-0.804,0.065-1.226
		c-0.151,0.224-0.271,0.46-0.463,0.618c-0.046-0.28,0.192-0.746,0.245-1.105c-0.216,0.257-0.229,0.625-0.439,0.801l-0.082-0.149
		c0.168-0.398,0.344-0.828,0.326-1.261c-0.179,0.232-0.382,0.513-0.646,0.688l-0.036-0.061c0.008-0.338,0.209-0.727,0.203-1.085
		c-0.052,0.058-0.156,0.114-0.218,0.206c0.018-0.37,0.117-0.734,0.137-1.104c-0.135,0.213-0.299,0.414-0.545,0.471
		c0.1-0.223,0.186-0.465,0.187-0.716c-0.11,0.203-0.255,0.393-0.469,0.512c0.169-0.452,0.42-0.95,0.502-1.446
		c-0.274,0.155-0.472,0.403-0.688,0.607c0.021-0.262,0.135-0.602,0.188-0.909c-0.13,0.212-0.293,0.413-0.528,0.492
		c0.02-0.318,0.223-0.651,0.35-0.972c-0.229,0.237-0.412,0.506-0.643,0.69c0.135-0.354,0.202-0.725,0.285-1.075
		c-0.059,0.141-0.203,0.278-0.253,0.392c0.067-0.177,0.05-0.361,0.087-0.548c-0.255,0.195-0.443,0.551-0.688,0.713l-0.069-0.127
		c0.112-0.34,0.208-0.669,0.29-1.021c-0.087,0.187-0.268,0.369-0.422,0.483c0.064-0.284,0.104-0.556,0.215-0.81
		c-0.116,0.144-0.281,0.295-0.43,0.43c0.138-0.354,0.336-0.798,0.539-1.132c-0.186,0.269-0.457,0.477-0.744,0.663
		c0.05-0.162,0.115-0.396,0.184-0.571c-0.104,0.167-0.221,0.204-0.314,0.284c0.215-0.368,0.234-0.822,0.438-1.211
		c-0.111,0.2-0.311,0.336-0.533,0.434c0.037-0.129,0.016-0.313,0.047-0.412c-0.211,0.171-0.344,0.382-0.541,0.577
		c0.104-0.363,0.33-0.903,0.604-1.112c-0.177,0.182-0.353,0.364-0.542,0.523c0.059-0.254,0.174-0.539,0.314-0.784
		c-0.166,0.201-0.39,0.353-0.59,0.438c0.115-0.287,0.316-0.622,0.551-0.805c-0.287,0.186-0.547,0.416-0.877,0.515
		c0.037-0.326,0.34-0.685,0.584-0.989l28.668-15.944l0.035,0.063C276.979,42.137,276.887,42.273,276.775,42.418z"/>
	<path id="Klebestreifen__x28_Unten_Rechts_x29_" opacity="0.5" fill="#CCCCCC" enable-background="new    " d="M231.979,331.99
		c-0.112,0.086-0.203,0.18-0.27,0.284c0.156,0.138,0.373,0.17,0.592,0.149l-0.02,0.043c-0.272,0.101-0.582,0.16-0.873,0.313
		c0.221,0.031,0.469,0.053,0.73,0.053l-0.185,0.475c-0.392,0.137-0.813,0.227-1.213,0.307c0.155,0.057,0.409,0.082,0.631,0.119
		c-0.226,0.17-0.453,0.289-0.696,0.379c0.08,0,0.182,0.014,0.284,0.004c-0.233,0.275-0.646,0.318-0.979,0.449
		c0.453,0.1,0.931,0.209,1.373,0.273l-0.061,0.16c-0.277,0.102-0.758,0.322-1.036,0.369c0.229,0.01-1.541-0.496,0.459,0.146v0.023
		c-2-0.502-0.383,0.041-0.618,0.18c0.191,0.021,0.541-0.02,0.76-0.033c-0.297,0.143-0.553,0.176-0.854,0.287
		c0.176,0.021,0.387,0.076,0.604,0.053c-0.197,0.109-0.406,0.195-0.603,0.301c0.101,0.014,0.22,0.058,0.354,0.053
		c-0.256,0.113-0.521,0.27-0.737,0.421c0.207,0,0.421,0.004,0.646-0.037c-0.316,0.132-0.687,0.276-0.949,0.431
		c0.383,0.02,0.776-0.063,1.164-0.113l-0.037,0.086c-0.354,0.174-0.728,0.264-1.108,0.373c0.165-0.02,0.306,0.02,0.491,0.01
		c-0.318,0.16-0.743,0.307-0.993,0.553c0.19,0.098,0.431,0.086,0.651-0.01c-0.236,0.143-0.525,0.209-0.77,0.299
		c0.235,0.066,0.45,0.049,0.676,0.004c-0.373,0.086-0.767,0.301-1.104,0.43c0.207,0.131,0.455,0.1,0.726,0.072
		c-0.146,0.045-0.277,0.258-0.394,0.344c0.129-0.004,0.319,0.041,0.47,0c-0.191,0.158-0.422,0.275-0.57,0.451
		c0.073,0.006,0.155,0.006,0.229,0.018c-0.164,0.222-0.396,0.412-0.61,0.564c0.207,0,0.445-0.008,0.649-0.008
		c-0.323,0.107-0.784,0.217-1.076,0.359c0.164-0.016,0.353,0.031,0.521-0.006c-0.207,0.209-0.612,0.436-0.905,0.662
		c0.155,0.006,0.17,0.09,0.345,0.059c-0.229,0.244-0.552,0.457-0.85,0.627l-0.027,0.012c0.036,0.041,0.094,0.096,0.13,0.133
		c0.103,0.01,0.183-0.006,0.257-0.059c-0.063,0.029-0.136,0.082-0.199,0.105c-0.217,0.098-0.416,0.203-0.609,0.307l-29.444-11.518
		c0.063-0.033,0.158-0.076,0.237-0.09c0.195-0.086,0.404-0.156,0.58-0.271c-0.338-0.006-0.836,0.066-1.135-0.025l0.096-0.248
		c0.416-0.261,1.02-0.412,1.402-0.521c-0.359-0.09-0.746-0.032-1.104-0.043c0.245-0.295,0.688-0.438,0.987-0.729
		c-0.271,0.022-0.524,0.079-0.77,0.032c0.186-0.213,0.697-0.321,1.006-0.516c-0.334-0.007-0.627,0.223-0.896,0.17l0.061-0.154
		c0.414-0.131,0.857-0.266,1.182-0.555c-0.291,0.014-0.637,0.036-0.94-0.063l0.024-0.062c0.268-0.214,0.691-0.304,0.966-0.534
		c-0.078-0.007-0.19-0.054-0.297-0.039c0.295-0.222,0.642-0.377,0.938-0.602c-0.248,0.033-0.511,0.033-0.712-0.118
		c0.234-0.062,0.478-0.149,0.673-0.313c-0.228,0.043-0.467,0.055-0.689-0.031c0.453-0.16,0.998-0.283,1.434-0.533
		c-0.298-0.114-0.611-0.108-0.908-0.145c0.217-0.15,0.549-0.277,0.821-0.436c-0.249,0.033-0.507,0.037-0.718-0.1
		c0.256-0.187,0.645-0.242,0.971-0.347c-0.328-0.026-0.65,0-0.938-0.058c0.357-0.123,0.686-0.303,1.01-0.463
		c-0.146,0.041-0.344,0.019-0.463,0.053c0.178-0.059,0.313-0.189,0.477-0.28c-0.313-0.069-0.709,0.004-0.984-0.073l0.052-0.14
		c0.336-0.127,0.646-0.265,0.974-0.427c-0.199,0.054-0.455,0.029-0.642-0.02c0.262-0.129,0.493-0.27,0.761-0.346
		c-0.188,0-0.406-0.033-0.604-0.057c0.356-0.123,0.828-0.25,1.219-0.31c-0.328,0.029-0.662-0.047-0.988-0.149
		c0.156-0.066,0.379-0.162,0.557-0.226c-0.192,0.029-0.297-0.041-0.422-0.062c0.424-0.069,0.789-0.346,1.215-0.438
		c-0.226,0.043-0.457-0.021-0.674-0.137c0.123-0.051,0.254-0.184,0.349-0.223c-0.267-0.058-0.513-0.023-0.791-0.053
		c0.349-0.15,0.907-0.314,1.243-0.24c-0.252-0.019-0.506-0.041-0.75-0.086c0.232-0.113,0.525-0.207,0.808-0.254
		c-0.263,0-0.521-0.076-0.713-0.177c0.293-0.094,0.685-0.149,0.971-0.09c-0.325-0.104-0.669-0.156-0.954-0.347
		c0.276-0.18,0.742-0.18,1.137-0.18l30.549,11.951l-0.029,0.066C232.326,331.968,232.16,331.981,231.979,331.99z"/>
	<path id="Klebestreifen__x28_Unten_Links_2_x29_" opacity="0.5" fill="#CCCCCC" enable-background="new    " d="M17.622,345.287
		c-0.053-0.129-0.116-0.242-0.199-0.338c-0.177,0.108-0.27,0.313-0.312,0.524l-0.038-0.033c-0.019-0.289,0.009-0.601-0.052-0.922
		c-0.092,0.198-0.185,0.437-0.257,0.687l-0.4-0.308c-0.023-0.412,0.009-0.849,0.047-1.25c-0.104,0.133-0.196,0.369-0.29,0.567
		c-0.104-0.262-0.154-0.512-0.17-0.771c-0.022,0.074-0.063,0.164-0.087,0.271c-0.193-0.303-0.122-0.709-0.152-1.069
		c-0.227,0.412-0.463,0.838-0.651,1.246l-0.135-0.104c-0.022-0.293-0.218-0.412-0.183-0.695c-0.074,0.22,0.893-1.282-0.392,0.806
		l-0.021-0.011c1.153-2.143,0.187-0.78,0.12-1.049c-0.08,0.185-0.078,0.326-0.12,0.537c-0.056-0.32,0.015-0.672-0.012-0.998
		c-0.064,0.166-0.165,0.299-0.205,0.512c-0.046-0.219-0.064-0.467-0.109-0.682c-0.041,0.09-0.11,0.182-0.146,0.31
		c-0.035-0.275-0.106-0.578-0.192-0.828c-0.061,0.198-0.12,0.396-0.145,0.623c-0.039-0.341-0.075-0.738-0.146-1.035
		c-0.126,0.362-0.161,0.763-0.215,1.149l-0.074-0.063c-0.067-0.383-0.051-0.771-0.046-1.17c-0.029,0.166-0.104,0.289-0.148,0.47
		c-0.066-0.351-0.085-0.8-0.251-1.105c-0.145,0.156-0.206,0.388-0.175,0.63c-0.068-0.271-0.054-0.563-0.07-0.824
		c-0.13,0.209-0.172,0.42-0.194,0.647c0.022-0.383-0.07-0.821-0.099-1.178c-0.187,0.159-0.222,0.405-0.275,0.672
		c-0.003-0.149-0.167-0.343-0.218-0.474c-0.034,0.127-0.133,0.297-0.133,0.449c-0.099-0.229-0.148-0.481-0.275-0.673
		c-0.025,0.072-0.047,0.146-0.076,0.22c-0.169-0.226-0.287-0.498-0.374-0.75c-0.058,0.198-0.116,0.433-0.174,0.625
		c-0.014-0.336,0.013-0.813-0.044-1.131c-0.033,0.155-0.129,0.325-0.141,0.502c-0.141-0.263-0.248-0.711-0.38-1.058
		c-0.049,0.146-0.883,0.14-0.898,0.313C8.941,338.233,8,337.871,8,337.539v-0.033c0,0.022,0.63,0.063,0.58,0.091
		c-0.034,0.09,0.332,0.176,0.357,0.26c-0.008-0.069,0.147-0.149,0.141-0.221c-0.03-0.236,0.02-0.455-0.028-0.673l19.375-25.022
		c0.01,0.07,0.047,0.17,0.041,0.257c0.027,0.209,0.046,0.43,0.109,0.629c0.096-0.322,0.176-0.818,0.35-1.08l0.212,0.162
		c0.13,0.469,0.111,1.094,0.106,1.489c0.188-0.321,0.242-0.705,0.354-1.045c0.213,0.315,0.222,0.778,0.422,1.149
		c0.054-0.262,0.069-0.526,0.181-0.748c0.154,0.24,0.116,0.763,0.215,1.111c0.096-0.322-0.037-0.662,0.086-0.908l0.137,0.104
		c0.004,0.432,0.01,0.895,0.195,1.287c0.071-0.283,0.148-0.619,0.325-0.891l0.052,0.047c0.131,0.313,0.098,0.746,0.244,1.074
		c0.024-0.072,0.1-0.166,0.117-0.273c0.131,0.346,0.183,0.721,0.313,1.068c0.037-0.252,0.11-0.502,0.312-0.646
		c-0.003,0.24,0.015,0.496,0.112,0.73c0.024-0.229,0.081-0.463,0.229-0.656c0.026,0.48-0.01,1.041,0.11,1.529
		c0.19-0.258,0.272-0.561,0.394-0.834c0.082,0.25,0.112,0.604,0.186,0.912c0.036-0.25,0.105-0.494,0.293-0.662
		c0.107,0.299,0.052,0.688,0.061,1.025c0.119-0.309,0.182-0.623,0.32-0.885c0.014,0.379,0.098,0.742,0.161,1.104
		c-0.003-0.154,0.077-0.336,0.078-0.457c0.006,0.188,0.096,0.35,0.137,0.531c0.155-0.277,0.191-0.68,0.349-0.922l0.115,0.084
		c0.031,0.361,0.074,0.697,0.135,1.057c0.009-0.207,0.102-0.443,0.197-0.615c0.053,0.289,0.124,0.557,0.124,0.834
		c0.051-0.18,0.141-0.383,0.222-0.563c0.015,0.373,0.007,0.86-0.048,1.25c0.063-0.317,0.232-0.616,0.424-0.905
		c0.019,0.172,0.049,0.411,0.055,0.598c0.03-0.188,0.123-0.271,0.179-0.385c-0.051,0.428,0.108,0.854,0.075,1.289
		c0.023-0.229,0.15-0.437,0.322-0.611c0.016,0.134,0.108,0.294,0.117,0.398c0.128-0.242,0.165-0.488,0.27-0.744
		c0.048,0.373,0.051,0.961-0.117,1.26c0.09-0.235,0.183-0.475,0.292-0.694c0.046,0.254,0.055,0.563,0.022,0.847
		c0.071-0.254,0.218-0.478,0.366-0.634c0.008,0.308-0.045,0.695-0.187,0.955c0.19-0.282,0.337-0.596,0.603-0.817
		c0.091,0.313-0.042,0.762-0.148,1.142l-20.052,25.959l-0.059-0.048C17.544,345.627,17.575,345.465,17.622,345.287z"/>
</g>
</svg>
