<?xml version="1.0" encoding="utf-8"?>
<!-- Generator: Adobe Illustrator 16.0.3, SVG Export Plug-In . SVG Version: 6.00 Build 0)  -->
<!DOCTYPE svg PUBLIC "-//W3C//DTD SVG 1.1//EN" "http://www.w3.org/Graphics/SVG/1.1/DTD/svg11.dtd">
<svg version="1.1" id="Ebene_1" xmlns="http://www.w3.org/2000/svg" xmlns:xlink="http://www.w3.org/1999/xlink" x="0px" y="0px"
	 width="200px" height="200px" viewBox="0 0 200 200" enable-background="new 0 0 200 200" xml:space="preserve">
<g id="Rahmen">
	
		<path id="Äußerer_rahmen" fill="#492715" stroke="#000000" stroke-width="0.5" stroke-linecap="round" stroke-linejoin="round" d="
		M33,9.374c0,0,0,6.398,0,16.796c0.002,3.466,0.003,7.376,0.024,11.652c1.325,31.552,2.325,63.553,0.003,95.978
		c-0.021,2.656-0.023,5.277-0.027,7.843c0,28.227,0,49.732,0,49.732s2.457,0,6.706,0c33.644-1,67.644-1,101.187-0.015
		c2.727,0.014,5.47,0.015,8.206,0.015c5.474,0,10.918,0,16.251,0c-0.75-15.75,0.75-32.063,0.872-48.271
		c0.014-1.801,0.011-3.601-0.015-5.397c0.143-8.332-1.857-17.332-0.713-25.084c-0.021-1.396-0.039-2.773-0.056-4.138
		c-0.097-8.186-0.12-15.913-0.212-24.32c-0.034-1.543-0.063-3.09-0.094-4.643s-0.066-3.11-0.107-4.676
		c0.036-1.671,0.1-3.34,0.181-5.008c0.405-8.339,1.258-16.672,1.447-25.351c0.108-3.432,0.186-6.866,0.212-10.294
		c0.026-3.428,0.001-6.849-0.096-10.255c0.087-3.361,0.165-6.716,0.23-10.066c0-2.899,0-4.499,0-4.499s-4.711,0-12.366,0
		c-1.276,0-2.634,0.001-4.063,0.002c-1.432,0.001-2.936,0.003-4.504,0.007c-10.302-0.706-20.252-0.918-30.52-0.634
		c-1.469,0.041-2.945,0.091-4.438,0.15c-4.428,0.143-8.877,0.242-13.329,0.312c-1.484,0.023-2.968,0.043-4.449,0.059
		C78.35,9.374,62.35,9.374,47.34,9.374c-2.202,0-4.2,0-5.958,0C36.109,9.374,33,9.374,33,9.374z"/>
	<path id="Innerer_Rahmen" fill="#B0988C" stroke="#000000" stroke-width="0.5" stroke-linecap="round" stroke-linejoin="round" d="
		M157.995,22.492c0.169,2.985,0.271,5.988,0.316,9.006c0.038,20.875-1.962,42.875-2.036,64.244c0.005,1.178,0.013,2.357,0.024,3.537
		c0.012,1.181,0.026,2.361,0.046,3.542c0.004,14.553,0.004,29.553,0.295,44.903c-0.065,1.701-0.137,3.409-0.204,5.116
		c-0.337,8.533-0.587,17.033-0.087,25.533c-2.667,0-5.361,0-8.074,0c-2.714,0-5.446,0-8.185-0.006
		c-32.741-0.994-64.741-0.994-97.741,0.006c0-2,0-3-0.35-4.988c0-1.6,0-3.55,0-5.805c0-6.764,0-16.262,0-27.198
		c0.002-2.43,0.005-4.93,0.035-7.476C44.35,99.374,42.35,65.374,42,31.015c0-5.458,0-8.642,0-8.642s6.372,0,16.129,0
		c3.256,0.003,6.887,0.007,10.787,0.014c20.434-1.014,40.434,0.986,60.468,1.439c3.352,0.012,6.7-0.042,10.052-0.211
		c3.352-0.168,6.705-0.454,10.063-0.896C154.799,22.564,157.995,22.492,157.995,22.492z"/>
</g>
</svg>
