<?xml version="1.0" encoding="utf-8"?>
<!-- Generator: Adobe Illustrator 16.0.3, SVG Export Plug-In . SVG Version: 6.00 Build 0)  -->
<!DOCTYPE svg PUBLIC "-//W3C//DTD SVG 1.1//EN" "http://www.w3.org/Graphics/SVG/1.1/DTD/svg11.dtd">
<svg version="1.1" id="Ebene_1" xmlns="http://www.w3.org/2000/svg" xmlns:xlink="http://www.w3.org/1999/xlink" x="0px" y="0px"
	 width="642.5px" height="789.5px" viewBox="0 0 642.5 789.5" enable-background="new 0 0 642.5 789.5" xml:space="preserve">
<g id="Rahmen">
	
		<path id="Äußerer_rahmen" fill="#492715" stroke="#000000" stroke-width="0.5" stroke-linecap="round" stroke-linejoin="round" d="
		M54.488,33.917c0,0,0,25.474,0,66.874c0.008,13.799,0.012,29.368,0.095,46.393c5.276,125.627,9.258,253.04,0.012,382.142
		c-0.083,10.575-0.091,21.012-0.107,31.227c0,112.389,0,198.012,0,198.012s9.783,0,26.701,0
		c133.956-3.981,269.326-3.981,402.879-0.063c10.859,0.059,21.781,0.063,32.676,0.063c21.79,0,43.471,0,64.7,0
		c-2.985-62.71,2.987-127.658,3.478-192.195c0.054-7.17,0.038-14.337-0.063-21.487c0.568-33.173-7.395-69.008-2.838-99.872
		c-0.086-5.561-0.156-11.042-0.225-16.479c-0.387-32.592-0.476-63.357-0.842-96.828c-0.139-6.144-0.251-12.303-0.377-18.486
		c-0.12-6.186-0.261-12.383-0.424-18.617c0.141-6.655,0.397-13.3,0.72-19.941c1.614-33.202,5.008-66.38,5.759-100.937
		c0.436-13.663,0.742-27.336,0.849-40.985c0.1-13.648,0.003-27.271-0.381-40.831c0.341-13.381,0.652-26.739,0.912-40.078
		c0-11.542,0-17.913,0-17.913s-18.756,0-49.236,0c-5.078,0-10.486,0.004-16.176,0.008c-5.699,0.004-11.691,0.012-17.932,0.027
		c-41.021-2.811-80.634-3.654-121.52-2.523c-5.848,0.163-11.723,0.361-17.671,0.597c-17.629,0.57-35.344,0.964-53.069,1.242
		c-5.908,0.092-11.816,0.171-17.714,0.235c-59.643,0.418-123.347,0.418-183.111,0.418c-8.766,0-16.721,0-23.722,0
		C66.867,33.917,54.488,33.917,54.488,33.917z"/>
	<path id="Innerer_Rahmen" fill="#B0988C" stroke="#000000" stroke-width="0.5" stroke-linecap="round" stroke-linejoin="round" d="
		M552.162,86.147c0.673,11.884,1.077,23.841,1.257,35.858c0.155,83.114-7.809,170.708-8.103,255.79
		c0.015,4.689,0.05,9.385,0.092,14.083c0.047,4.701,0.105,9.402,0.187,14.1c0.016,57.947,0.016,117.67,1.175,178.788
		c-0.261,6.771-0.548,13.57-0.817,20.367c-1.337,33.977-2.332,67.819-0.342,101.661c-10.622,0-21.346,0-32.147,0
		c-10.81,0-21.685,0-32.59-0.023c-130.358-3.958-257.77-3.958-389.161,0.023c0-7.963,0-11.944-1.394-19.86
		c0-6.369,0-14.134,0-23.112c0-26.929,0-64.746,0-108.291c0.008-9.674,0.02-19.628,0.14-29.764
		c9.221-133.51,1.258-268.884-0.136-405.686c0-21.731,0-34.409,0-34.409s25.371,0,64.218,0c12.963,0.012,27.423,0.027,42.949,0.057
		c81.359-4.038,160.988,3.925,240.756,5.729c13.349,0.047,26.677-0.167,40.021-0.84c13.349-0.67,26.697-1.808,40.068-3.569
		C539.436,86.433,552.162,86.147,552.162,86.147z"/>
</g>
</svg>
