<?xml version="1.0" encoding="utf-8"?>
<!-- Generator: Adobe Illustrator 16.0.3, SVG Export Plug-In . SVG Version: 6.00 Build 0)  -->
<!DOCTYPE svg PUBLIC "-//W3C//DTD SVG 1.1//EN" "http://www.w3.org/Graphics/SVG/1.1/DTD/svg11.dtd">
<svg version="1.1" id="Ebene_1" xmlns="http://www.w3.org/2000/svg" xmlns:xlink="http://www.w3.org/1999/xlink" x="0px" y="0px"
	 width="229.5px" height="181.5px" viewBox="0 0 279.5 231.5" enable-background="new 0 0 279.5 231.5" xml:space="preserve">
<g>
	<g id="Pfeilende">
		<path fill="#F2F2F2" d="M104.883,215.4l-88.98,13.52l-8.26-54.35c0.5-0.54,0.93-1.13,1.29-1.761c-0.1,0.021-0.2,0.011-0.29,0
			c0.87-0.93,1.48-2.01,2.1-3.05c-0.75,0.42-1.8,0.69-2.47,1.07c1.38-1.16,2.62-2.49,3.68-3.94c-1.06,0.65-2.43,1.19-3.37,1.761
			c2.07-1.58,4.06-3.66,5.67-5.841c-1.02,0.32-2.41,0-3.31,0.2c0.34-0.609,0.75-1.52,1.24-2.12c-0.56,0.181-0.93,0.601-1.64,0.301
			c0.72-0.921,1.19-2.311,1.88-3.19c-0.88,0.38-2.08,0.68-2.91,1.17c0.38-0.33,0.81-0.9,1.23-1.29c-0.88,0.59-2.09,0.98-2.93,1.47
			c0.71-0.68,1.27-1.619,1.96-2.319c-0.31-0.011-1.31,0.62-1.66,0.75c0.54-0.57,1.1-1.17,1.65-1.74c-1.54,0.71-3.06,1.479-4.6,2.18
			l-2.78-18.279l8.14-1.24l12-1.82l53.24-8.09l15.601-2.37l1.569,10.311l1.91,12.569l1.9,12.53l0.779,5.12l0.311,2.05l0.74,4.87
			l5.8,38.189L104.883,215.4z"/>
		<g>
			<g>
				<path d="M90.377,166c-5.891,0.66-11.331,1.752-16.976,3.534c-5.879,1.856-12.027,2.474-17.916,4.426
					c-11.308,3.747-23.207,3.397-34.813,5.719c-6.321,1.264-3.638,10.902,2.658,9.643c10.981-2.196,22.204-1.933,33-5.139
					c5.563-1.651,10.915-3.114,16.592-4.326c5.9-1.26,11.404-3.179,17.454-3.856C96.711,175.29,96.781,165.282,90.377,166
					L90.377,166z"/>
			</g>
		</g>
		<g>
			<g>
				<path d="M47.832,191.679c-5.378-0.854-10.612-4.304-15.493-6.609c-4.322-2.042-9.579-3.97-13.051-7.354
					c-2.02,2.617-4.04,5.235-6.059,7.853c6.063,4.548,12.46-4.339,15.654-8.313c2.871-3.571,5.84-7.045,8.499-10.778
					c2.394-3.36,4.684-6.068,8.269-8.159c5.566-3.247,0.535-11.891-5.047-8.635c-5.125,2.989-8.411,7-11.856,11.747
					c-2.188,3.016-4.624,5.832-6.935,8.754c-1.092,1.381-2.224,2.719-3.385,4.041c-0.401,0.425-0.803,0.851-1.204,1.275
					c-1.974,1.292-1.623,1.77,1.052,1.433c-4.623-3.467-10.035,3.977-6.059,7.853c4.175,4.07,9.872,6.473,15.075,8.919
					c5.604,2.636,11.694,6.635,17.881,7.617C51.479,202.322,54.187,192.688,47.832,191.679L47.832,191.679z"/>
			</g>
		</g>
	</g>
	<g id="Mittlerer_Pfeil">
		<path fill="#F2F2F2" d="M187.582,131.23l-1.379,11.71l-1.111,9.409l-2.299,19.601l-0.82,6.96l-3.24,27.51
			c-0.119-0.12-0.221-0.25-0.32-0.38c-0.199-0.3-0.32,0.39-0.449,0.27c-0.191-0.529-0.381-1-0.5-1.609
			c-0.141,0.03-0.4,0.649-0.5,0.58l-0.33-0.761c-0.221,0.921-1.08,2.011-1.35,2.82c-0.361-0.84-1.34-1.63-1.691-2.56
			c-0.469,1.1-1.529,2.239-1.809,3.569c0.08-1.08-0.201-2.399-0.182-3.369c-0.459,1.109-1.279,2.17-1.658,3.39
			c0.039-0.88-0.191-1.97-0.172-2.72c-0.578,1.119-1.559,2.06-2.039,3.26c-0.08-0.13,0.221-0.94-0.131-0.92
			c-0.719,1.21-1.959,2.149-2.639,3.41c-0.15-0.2-0.16-1.351-0.18-1.58c-0.311,0.13-1.311,1.04-1.531,1.04
			c0.061,0.08-0.51-0.24-0.469-0.23c-0.111-0.14,0.1-0.7-0.031-0.78c-1.809,0.301-4.029,1.721-4.82,1.71
			c-0.459,0.421-1,1.021-1.488,1.45c0.209-0.81,0.109-1.96,0.318-2.72c-0.84,1.09-2.289,2.02-3.16,3.22
			c-0.049-0.16,0.092-0.64-0.029-0.75c0,0.11-0.92,0.44-1.129,0.38c0.129-0.29,0.559-0.87,0.639-1.21
			c-1.74,0.75-3.84,0.96-4.85-0.04c-0.699,0.78-2.32,1.54-2.789,2.08c0.209-0.76,0.219-1.75,0.449-2.529
			c-0.66,1.04-1.961,2.09-2.621,3.05c-0.25-0.19,0.131-1.21,0.141-1.431c-0.51,0.71-1.189,1.351-1.77,2.021
			c0.24-0.29,0.57-0.7,0.439-0.71c-0.629,0.71-1.459,1.28-2.26,1.87l-2.77-0.33l-0.4-0.05l-32.279-3.801l-16.691-1.96l4.141-35.21
			l0.928-7.199L95,149.3v-0.02l1.241-11.2l1.431-12.51l0.551-4.86l81.369,9.58l4.785,0.56L187.582,131.23z"/>
		<g>
			<g>
				<path d="M177.254,171.001c-7.226-0.006-14.384-0.834-21.6-0.834c-6.962,0-14.998,1.308-21.739-0.487
					c-5.775-1.538-12.101-1.618-17.993-2.618c-5.252-0.892-10.691-1.254-16.001-1.728c-6.425-0.572-6.37,9.433,0,10
					c11.114,0.99,23.023,1.771,33.836,4.654c6.096,1.625,13.811,0.179,20.097,0.179c7.822,0,15.575,0.827,23.4,0.834
					C183.703,181.007,183.702,171.007,177.254,171.001L177.254,171.001z"/>
			</g>
		</g>
	</g>
	<g id="Pfeilanfang">
		
			<rect x="185.635" y="122.666" transform="matrix(0.9994 -0.0335 0.0335 0.9994 -5.4885 7.822)" fill="#F2F2F2" width="90" height="90"/>
		<g>
			<g>
				<path d="M269.086,162.001c-6.467,0.841-12.83,1.333-19.354,1.333c-7.032,0-14.521-0.852-21.479,0.05
					c-6.401,0.829-12.636,2.649-19.029,3.577c-5.722,0.83-11.058,2.465-16.633,3.552c-6.326,1.233-3.641,10.871,2.658,9.643
					c5.064-0.987,9.826-2.599,15.033-3.327c6.603-0.925,13.041-2.807,19.638-3.66c3.212-0.416,6.607,0.176,9.833,0.208
					c3.324,0.033,6.654-0.042,9.979-0.042c6.527,0,12.885-0.491,19.354-1.333C275.388,171.182,275.468,161.171,269.086,162.001
					L269.086,162.001z"/>
			</g>
		</g>
	</g>
	<g id="Zur_2_">
		<g id="Zur_1_">
			<path fill="#F2F2F2" d="M117.902,25.25c-0.01,0.01-0.029,0.02-0.039,0.02C117.883,25.23,117.893,25.23,117.902,25.25z"/>
			<path fill="#F2F2F2" d="M140.662,98.32l-9.609,1.67l-79.07,13.7l-11.61-67l-3.351-19.3l-0.409-2.37l1.449-0.25l13.98-2.43
				l37.92-6.57c0.03,0.22,0.08,0.41,0.15,0.54c2.25-0.92,2.909-0.7,4,0.5c0.67-0.37,2.1-0.45,2.97-0.85c0.3,0.73,1.38,1.43,1.7,2.08
				c0.399-0.53,1.359-1.07,1.8-1.68c0.02,0.07,0.06,0.93,0.03,0.95c0.189,0.12,0.569-0.11,0.78-0.08c0.92,1,0.551,0.96,2.369,0.37
				c0.051-0.01,0.711,0.23,1.51-0.33c-0.34,1.18-0.139,2.73-0.488,3.87c0.459,0.26,0.68-0.45,0.818-0.43
				c1.262,1.36-0.67,1.87,1.932,0.97c-0.541,1.21-0.23,2.76-0.59,3.95c1.75-0.09,3.859-0.69,5.629-1.04
				c-0.02,0.45-0.25,1.74-0.34,2.07c0.359-0.48,1.23-1.15,1.68-1.77c-0.34,0.72-0.59,1.59-1,2.25c0.85-0.78,2.211-1.53,3.01-2.78
				c-0.199,0.66-0.26,1.48-0.49,2.12c0.682-0.39,1.682-0.72,2.432-1.21c-0.111,0.21-0.311,1.44-0.301,1.55
				c0.439-0.22,1.381-0.97,1.881-1.11c-0.191,0.66-0.301,1.54-0.471,2.11c0.58-0.37,1.01-0.88,1.629-1.48
				c0.191,0.21,0,1.17,0.342,1.21c0.639-0.3,0.859-1.11,1.619-1.32c0.039-0.02-0.02,0.73,0.029,0.76c0.371-0.4,1.32-1.3,1.852-1.85
				c-0.041,0.46-0.191,1.33-0.33,1.85c1.049-0.22,1.35-0.5,2.139-0.96c0.01,0.56-0.109,1.26,0.16,1.68
				c0.359-0.39,0.67-0.98,0.98-1.36c0.141,0.21-0.061,0.62,0.35,0.67c0.16-0.1,0.33-0.22,0.49-0.35l6.461,37.21L140.662,98.32z"/>
			<g id="Zur">
				<path d="M76.323,69.2c-0.051,0.01-0.101,0.02-0.13,0.1l-1.91,3.74c-0.21,0.51-0.681,0.66-1.2,0.85
					c-3.22,1.15-11.271,2.99-13.92,3.42l-1.351,0.23l-0.02-0.11c0.33-0.38,0.7-0.85,0.94-1.18c3.289-3.78,11.439-14.06,15.119-19.04
					c0.28-0.45,0.37-0.76,0.311-1.11c-0.07-0.47-0.51-1.31-1.62-2.33c-0.06-0.1-0.22-0.14-0.41-0.11
					c-0.96,0.19-3.89,0.71-10.24,1.76c-4.77,0.78-9.109,1.46-10.17,1.63c-0.189,0.03-0.279,0.12-0.3,0.3l-0.1,5.38
					c-0.03,0.15,0.59,0.27,0.68,0.26c0.1-0.02,0.2-0.04,0.23-0.11l2.399-4.96c0.19-0.36,0.41-0.54,0.79-0.6
					c1.69-0.28,6.37-0.68,9.08-0.76c0.54-0.02,1.31-0.11,1.96-0.11l0.16,0.08c-0.41,0.51-0.771,1.01-1.08,1.53
					c-2.98,4.43-10,14.12-13.36,18.94c-0.029,0.08-0.069,0.16-0.05,0.27c0.03,0.17,0.29,0.57,0.53,0.86
					c0.71,1.01,1.22,1.11,1.95,0.99c1.729-0.29,5.239-0.9,8.13-1.37c10.5-1.73,13.21-2.07,13.59-2.13
					c0.39-0.06,0.479-0.15,0.479-0.44l0.19-5.72C77.033,69.31,76.462,69.18,76.323,69.2z"/>
				<path d="M106.922,70.01l-1.889-0.06c-0.451,0.01-0.57-0.16-0.67-0.47c-0.25-0.91-1.051-4.86-1.32-6.53
					c-0.24-1.42-1.18-6.85-1.35-8.17c-0.031-0.21-0.191-0.3-0.432-0.22l-8.419,2.3c-0.14,0.06-0.13,0.13-0.12,0.2
					c0.03,0.14,0.21,0.33,0.351,0.31l2.189-0.22c0.34-0.02,0.521,0.17,0.601,0.63c0.109,0.68,0.33,2.65,0.34,3.6
					c0.069,4.91-1.74,8.96-4.63,9.44c-2.261,0.37-3.53-1.61-4.33-6.48c-0.28-1.7-0.71-5.86-0.851-7.01
					c-0.04-0.25-0.159-0.34-0.439-0.25l-8.36,2.36c-0.149,0.02-0.189,0.06-0.18,0.14c0.03,0.17,0.27,0.43,0.46,0.39l2.02-0.33
					c0.44-0.07,0.61,0.08,0.63,0.52c-0.01,1.72,0.11,4.83,0.521,7.36c0.86,5.22,4.04,6.85,7.51,6.27c4.05-0.66,6.55-3.15,7.91-6.95
					c0.11-0.24,0.15-0.57,0.28-0.99l0.24-0.04l0.18,1.1c0.17,1.36,0.71,4.3,0.78,4.72c0.04,0.25,0.149,0.34,0.34,0.31
					c0.96-0.19,2.5-0.45,4.139-0.72c1.881-0.31,3.42-0.56,4.68-0.73c0.141-0.02,0.131-0.06,0.131-0.09
					C107.213,70.29,107.072,70.02,106.922,70.01z"/>
				<path d="M125.232,51.13c-0.02-0.11-0.08-0.17-0.189-0.22c-0.361-0.13-0.91-0.15-1.58-0.04c-4.381,0.73-6.201,5.33-6.75,8.88
					c-0.01,0.23-0.061,0.56-0.09,0.97l-0.191,0.03c-0.049-0.29-0.068-0.72-0.129-1.04c-0.121-1.98-0.59-6.65-0.68-7.18
					c-0.041-0.25-0.16-0.38-0.541-0.24l-9.17,2.56c-0.141,0.03-0.129,0.1-0.119,0.17c0.029,0.14,0.17,0.41,0.359,0.38l2.18-0.25
					c0.439-0.04,0.58,0.16,0.631,0.48c0.26,0.98,0.91,4.63,1.209,6.15c0.281,1.41,1.1,5.8,1.25,6.72
					c0.051,0.29-0.08,0.42-0.359,0.54l-2.35,0.75c-0.141,0.02-0.201,0.25-0.17,0.43c0,0.03,0.01,0.07,0.109,0.05
					c0.57-0.13,3.07-0.58,5.91-1.04c3.27-0.54,6.07-0.96,7.42-1.15c0.1-0.02,0.09-0.05,0.08-0.12c-0.02-0.11-0.199-0.33-0.301-0.32
					l-3.818,0.23c-0.342,0.02-0.541-0.02-0.602-0.34c-0.139-0.85-0.279-3.24-0.199-4.27c0.5-5.05,2.18-8.97,4.83-9.4
					c0.529-0.09,1.049,0.08,1.449,0.38c0.691,0.58,1.611,1.41,2.33,2.13c0.061,0.06,0.1,0.06,0.15,0.05c0.1-0.02,0.5-0.27,0.48-0.41
					L125.232,51.13z"/>
			</g>
		</g>
		<path id="Klebestreifen_2_" opacity="0.5" fill="#CCCCCC" enable-background="new    " d="M43.453,12.227
			c0.085,0.113,0.178,0.203,0.283,0.271c0.138-0.155,0.174-0.376,0.154-0.59l0.044,0.018c0.099,0.274,0.158,0.583,0.306,0.875
			c0.034-0.219,0.058-0.471,0.058-0.732l0.469,0.187c0.139,0.39,0.228,0.815,0.308,1.214c0.058-0.159,0.081-0.41,0.118-0.631
			c0.171,0.224,0.288,0.451,0.376,0.695c0.003-0.079,0.015-0.177,0.007-0.284c0.271,0.236,0.315,0.647,0.445,0.981
			c0.102-0.452,0.213-0.932,0.282-1.372l0.158,0.061c0.101,0.273,0.362,0.014,0.411,0.293c0.01-0.229-0.457,1.132,0.191-1.203
			l0.023,0.008c-0.511,2.376-0.005,1.12,0.137,1.358c0.023-0.196-0.039-0.169-0.059-0.387c0.144,0.294,0.166,0.731,0.28,1.037
			c0.018-0.175,0.068-0.292,0.051-0.508c0.104,0.199,0.189,0.451,0.293,0.647c0.014-0.098,0.054-0.193,0.052-0.328
			c0.111,0.256,0.262,0.532,0.413,0.747c0.001-0.206,0.007-0.41-0.035-0.636c0.133,0.314,0.275,0.686,0.428,0.954
			c0.023-0.385-0.058-0.775-0.113-1.164l0.09,0.037c0.173,0.354,0.263,0.727,0.368,1.11c-0.014-0.163,0.018-0.306,0.011-0.489
			c0.163,0.321,0.306,0.742,0.549,0.995c0.099-0.194,0.091-0.435-0.005-0.652c0.141,0.235,0.209,0.525,0.296,0.768
			c0.064-0.234,0.048-0.449,0.005-0.672c0.086,0.369,0.297,0.765,0.423,1.101c0.136-0.207,0.102-0.452,0.079-0.724
			c0.045,0.147,0.254,0.282,0.34,0.394c-0.001-0.131,0.045-0.32,0.003-0.468c0.158,0.192,0.276,0.423,0.45,0.57
			c0.006-0.075,0.009-0.153,0.015-0.229c0.223,0.164,0.413,0.396,0.565,0.612c0.002-0.207-0.01-0.444-0.006-0.652
			c0.107,0.328,0.212,0.787,0.356,1.08c-0.012-0.163,0.034-0.35-0.003-0.522c0.208,0.211,0.435,0.615,0.657,0.91
			c0.01-0.152,0.095-0.169,0.061-0.344c0.246,0.23,0.458,0.549,0.629,0.849l0.008,0.031c0.041-0.036,0.092-0.095,0.134-0.132
			c0.012-0.099-0.007-0.185-0.054-0.255c0.023,0.063,0.076,0.135,0.101,0.2c0.099,0.218,0.201,0.414,0.306,0.613L42.293,47.274
			c-0.027-0.062-0.071-0.154-0.086-0.238c-0.085-0.191-0.154-0.402-0.27-0.576c-0.004,0.337,0.064,0.834-0.03,1.132l-0.249-0.097
			c-0.253-0.413-0.404-1.019-0.515-1.403c-0.089,0.36-0.031,0.744-0.048,1.103c-0.289-0.246-0.429-0.688-0.726-0.989
			c0.024,0.27,0.081,0.527,0.033,0.771c-0.212-0.187-0.323-0.699-0.511-1.009c-0.004,0.335,0.219,0.629,0.167,0.898l-0.158-0.063
			c-0.122-0.414-0.259-0.858-0.547-1.182c0.01,0.292,0.03,0.638-0.063,0.942l-0.066-0.024c-0.209-0.267-0.3-0.694-0.531-0.968
			c-0.003,0.078-0.049,0.188-0.038,0.297c-0.221-0.297-0.374-0.642-0.595-0.94c0.031,0.251,0.031,0.51-0.122,0.71
			c-0.064-0.235-0.151-0.477-0.31-0.672c0.043,0.228,0.052,0.466-0.038,0.693c-0.155-0.456-0.277-1-0.528-1.436
			c-0.114,0.293-0.109,0.61-0.148,0.905c-0.149-0.217-0.277-0.551-0.432-0.822c0.035,0.247,0.036,0.506-0.097,0.717
			c-0.187-0.259-0.24-0.645-0.347-0.974c-0.026,0.33,0.003,0.653-0.059,0.941c-0.121-0.359-0.303-0.689-0.461-1.013
			c0.045,0.146,0.02,0.344,0.054,0.464c-0.061-0.181-0.19-0.312-0.281-0.479c-0.073,0.313,0.007,0.708-0.078,0.987l-0.135-0.054
			c-0.129-0.335-0.264-0.649-0.424-0.974c0.052,0.199,0.028,0.454-0.02,0.642c-0.129-0.262-0.272-0.497-0.348-0.764
			c0.002,0.186-0.03,0.407-0.059,0.604c-0.119-0.36-0.246-0.829-0.301-1.216c0.026,0.325-0.051,0.658-0.155,0.983
			c-0.065-0.156-0.162-0.379-0.221-0.557c0.025,0.195-0.042,0.297-0.064,0.419c-0.066-0.42-0.339-0.784-0.43-1.214
			c0.042,0.227-0.027,0.457-0.137,0.675c-0.053-0.124-0.187-0.253-0.225-0.349c-0.055,0.266-0.023,0.513-0.053,0.789
			c-0.149-0.347-0.317-0.907-0.238-1.243c-0.021,0.253-0.041,0.505-0.087,0.748c-0.116-0.233-0.207-0.526-0.254-0.806
			c-0.001,0.261-0.076,0.521-0.179,0.713c-0.092-0.296-0.148-0.682-0.085-0.972c-0.104,0.325-0.158,0.669-0.351,0.955
			c-0.178-0.275-0.172-0.746-0.176-1.136l12.051-30.51l0.067,0.026C43.431,11.881,43.447,12.044,43.453,12.227z"/>
		<path id="Klebestreifen_1_" opacity="0.5" fill="#CCCCCC" enable-background="new    " d="M102.352,26.216
			c0.107-0.092,0.193-0.189,0.254-0.299c-0.162-0.128-0.387-0.151-0.598-0.119l0.016-0.045c0.268-0.114,0.572-0.192,0.855-0.357
			c-0.223-0.021-0.475-0.029-0.736-0.014l0.158-0.479c0.381-0.162,0.801-0.276,1.193-0.38c-0.162-0.048-0.414-0.057-0.637-0.08
			c0.213-0.185,0.434-0.314,0.672-0.417c-0.078,0.002-0.178-0.004-0.283,0.01c0.219-0.285,0.627-0.354,0.953-0.503
			c-0.459-0.074-0.943-0.156-1.387-0.199l0.051-0.162c0.268-0.116-0.008-0.362,0.268-0.428c-0.23,0.004,1.158,0.389-1.213-0.119
			l0.006-0.023c2.402,0.367,1.119-0.063,1.35-0.218c-0.199-0.012-0.166,0.049-0.383,0.081c0.285-0.16,0.719-0.209,1.018-0.342
			c-0.174-0.007-0.295-0.051-0.51-0.021c0.193-0.115,0.439-0.216,0.629-0.331c-0.098-0.008-0.195-0.042-0.33-0.031
			c0.248-0.127,0.516-0.293,0.721-0.457c-0.205,0.011-0.41,0.018-0.633,0.072c0.307-0.151,0.668-0.315,0.928-0.483
			c-0.387-0.001-0.771,0.104-1.156,0.183l0.033-0.092c0.342-0.193,0.709-0.306,1.086-0.434c-0.162,0.023-0.307,0-0.49,0.018
			c0.313-0.182,0.723-0.349,0.961-0.606c-0.199-0.087-0.439-0.065-0.65,0.044c0.227-0.155,0.512-0.24,0.748-0.342
			c-0.238-0.05-0.451-0.021-0.672,0.035c0.365-0.107,0.746-0.342,1.074-0.487c-0.215-0.123-0.457-0.074-0.727-0.036
			c0.145-0.054,0.266-0.271,0.373-0.362c-0.131,0.009-0.324-0.026-0.467,0.024c0.182-0.169,0.404-0.301,0.541-0.483
			c-0.076-0.001-0.152,0.001-0.229-0.001c0.15-0.231,0.371-0.436,0.576-0.601c-0.205,0.01-0.441,0.036-0.65,0.045
			c0.322-0.127,0.773-0.259,1.059-0.421c-0.162,0.021-0.352-0.013-0.523,0.034c0.199-0.22,0.59-0.471,0.871-0.71
			c-0.154-0.001-0.176-0.085-0.348-0.04c0.215-0.26,0.521-0.49,0.809-0.679l0.031-0.01c-0.039-0.038-0.1-0.086-0.139-0.125
			c-0.1-0.006-0.184,0.018-0.252,0.068c0.061-0.027,0.131-0.084,0.195-0.112c0.211-0.111,0.4-0.226,0.592-0.342l30.047,9.839
			c-0.061,0.031-0.15,0.081-0.234,0.101c-0.186,0.096-0.393,0.178-0.559,0.303c0.338-0.016,0.828-0.114,1.133-0.037l-0.082,0.255
			c-0.396,0.276-0.992,0.464-1.369,0.597c0.363,0.067,0.744-0.013,1.102-0.018c-0.229,0.303-0.66,0.469-0.943,0.783
			c0.268-0.04,0.521-0.112,0.768-0.079c-0.174,0.223-0.68,0.364-0.977,0.57c0.334-0.017,0.615-0.256,0.887-0.221l-0.055,0.162
			c-0.406,0.146-0.84,0.31-1.146,0.616c0.291-0.027,0.635-0.068,0.945,0.007l-0.021,0.068c-0.252,0.225-0.674,0.341-0.934,0.588
			c0.078-0.002,0.191,0.037,0.299,0.021c-0.283,0.237-0.619,0.411-0.904,0.649c0.25-0.046,0.508-0.062,0.717,0.079
			c-0.232,0.079-0.467,0.18-0.652,0.35c0.225-0.057,0.461-0.079,0.695-0.004c-0.447,0.183-0.982,0.337-1.402,0.613
			c0.301,0.097,0.615,0.073,0.912,0.095c-0.207,0.162-0.533,0.31-0.795,0.479c0.246-0.05,0.502-0.066,0.721,0.054
			c-0.246,0.202-0.629,0.278-0.949,0.404c0.33,0.007,0.65-0.042,0.943,0.002c-0.352,0.143-0.67,0.344-0.984,0.521
			c0.143-0.053,0.342-0.04,0.461-0.081c-0.178,0.071-0.301,0.209-0.463,0.31c0.316,0.055,0.707-0.049,0.99,0.019l-0.047,0.139
			c-0.324,0.148-0.631,0.302-0.945,0.48c0.195-0.063,0.451-0.055,0.641-0.019c-0.254,0.145-0.479,0.302-0.74,0.393
			c0.184-0.013,0.408,0.006,0.607,0.022c-0.354,0.141-0.814,0.295-1.197,0.373c0.324-0.046,0.66,0.011,0.992,0.096
			c-0.152,0.075-0.369,0.185-0.543,0.254c0.193-0.037,0.299,0.024,0.422,0.039c-0.416,0.092-0.762,0.386-1.186,0.502
			c0.225-0.056,0.457,0,0.682,0.096c-0.121,0.061-0.24,0.201-0.334,0.245c0.268,0.039,0.512-0.007,0.791,0.006
			c-0.338,0.17-0.889,0.371-1.229,0.312c0.254,0.006,0.508,0.011,0.752,0.043c-0.225,0.129-0.512,0.237-0.787,0.301
			c0.258-0.015,0.521,0.045,0.721,0.136c-0.291,0.109-0.67,0.189-0.965,0.144c0.332,0.084,0.678,0.117,0.975,0.293
			c-0.266,0.193-0.734,0.216-1.123,0.243l-31.176-10.207l0.023-0.069C102.008,26.258,102.17,26.232,102.352,26.216z"/>
	</g>
	<g id="ück_2_">
		<g id="ück_1_">
			
				<rect x="134.635" y="21.666" transform="matrix(0.995 0.1002 -0.1002 0.995 7.5819 -17.6594)" fill="#F2F2F2" width="90" height="90.002"/>
			<g id="ück">
				<path d="M167.883,48h-0.031c-0.818,0-1.398,0.46-1.469,1.1c-0.07,0.69,0.41,1.27,1.16,1.35c0.75,0.08,1.279-0.46,1.359-1.14
					C168.982,48.6,168.563,48,167.883,48z M162.803,47h-0.031c-0.818,0-1.398,0.69-1.469,1.32c-0.07,0.68,0.369,1.38,1.16,1.46
					c0.75,0.08,1.32-0.61,1.389-1.29C163.932,47.81,163.482,47,162.803,47z M173.053,69.5l-1.32-0.51
					c-0.311-0.1-0.359-0.29-0.359-0.62c0.029-0.94,0.359-4.95,0.539-6.64c0.16-1.43,0.721-6.91,0.91-8.23
					c0.02-0.21-0.08-0.33-0.26-0.31l-6.471,0.19c-0.109,0.03-0.119,0.1-0.119,0.17c-0.02,0.14,0.061,0.37,0.17,0.38l1.6,0.32
					c0.24,0.06,0.33,0.29,0.279,0.76c-0.078,0.68-0.369,2.64-0.578,3.55c-1.061,4.78-3.25,8.27-5.4,8.03
					c-1.68-0.18-2.131-2.4-1.59-7.31c0.189-1.71,0.818-5.85,0.979-6.99c0.031-0.25-0.029-0.36-0.25-0.35l-6.439,0.27
					c-0.1-0.01-0.141,0.02-0.15,0.09c-0.02,0.18,0.09,0.49,0.23,0.5l1.51,0.17c0.32,0.03,0.41,0.22,0.32,0.65
					c-0.4,1.66-1.02,4.7-1.301,7.24c-0.568,5.26,1.311,7.6,3.881,7.89c3.01,0.33,5.34-1.48,7.16-4.83c0.129-0.21,0.24-0.52,0.42-0.9
					l0.18,0.02l-0.119,1.11c-0.191,1.36-0.48,4.33-0.521,4.76c-0.029,0.25,0.031,0.37,0.17,0.38c0.721,0.04,1.871,0.17,3.08,0.3
					c1.4,0.16,2.541,0.28,3.471,0.42c0.109,0.01,0.109-0.03,0.121-0.06C173.203,69.84,173.162,69.55,173.053,69.5z"/>
				<path d="M190.162,55.51c-0.549-0.31-1.529-0.6-3.029-0.76c-2.791-0.31-5.131,0.23-7.121,1.5c-2.398,1.47-4.1,4.04-4.42,7.01
					l-0.01,0.03c-0.57,5.26,2.689,7.54,7.061,8.02c1.68,0.18,2.369,0.11,3-0.03c1.641-0.37,3.039-0.9,3.76-1.26
					c0.109-0.02,0.16-0.12,0.18-0.27c0.02-0.21-0.07-0.37-0.15-0.34c-0.68,0.25-1.42,0.46-2.449,0.56
					c-0.619,0.08-1.35,0.07-1.85,0.02c-2.611-0.29-4.58-2.49-4.121-6.68c0.23-2.04,0.82-3.86,1.66-5.18
					c1.191-1.97,2.48-2.88,3.771-2.73c0.469,0.05,0.92,0.17,1.219,0.45c0.301,0.25,0.451,0.52,0.561,0.83
					c0.41,0.91,0.859,2.12,1.279,3.21c0.031,0.08,0.061,0.08,0.131,0.09c0.109,0.01,0.449-0.13,0.459-0.24l0.211-3.89
					C190.322,55.68,190.262,55.56,190.162,55.51z"/>
				<path d="M202.342,61.99c1.891-0.99,4.461-2.34,6.41-3.32c0.461-0.2,0.691-0.29,1.061-0.35l0.881-0.13
					c0.109-0.02,0.209-0.26,0.229-0.4c0-0.08,0.01-0.15-0.1-0.16l-6.76-0.74c-0.109-0.01-0.109,0.02-0.119,0.1
					c-0.021,0.21,0.059,0.47,0.199,0.52l1.471,0.45c0.238,0.1,0.18,0.35-0.021,0.51c-2.1,1.65-4.529,3.31-6.24,4.42
					c-0.238,0.19-0.559,0.45-0.959,0.77l-0.1-0.05c0.039-0.36,0.17-0.92,0.209-1.28c0.4-2.93,1.791-12.37,1.971-13.69
					c0.02-0.18-0.041-0.29-0.291-0.29l-7.66-0.11c-0.109-0.01-0.119,0.02-0.119,0.06c-0.02,0.14,0.1,0.44,0.17,0.45l2.131,0.38
					c0.318,0.07,0.41,0.23,0.369,0.55c-0.1,1.29-0.9,9.57-1.029,10.78c-0.17,1.54-0.92,9.35-1.08,10.5
					c-0.031,0.28-0.15,0.38-0.33,0.39l-1.791,0.13c-0.18,0.02-0.25,0.27-0.26,0.37c-0.01,0.07-0.01,0.11,0.1,0.12
					c0.682,0.04,2.262,0.18,4.301,0.4c1.971,0.22,3.68,0.44,4.5,0.57c0.109,0.01,0.15-0.02,0.15-0.1c0.02-0.14-0.031-0.36-0.17-0.41
					l-1.82-0.53c-0.25-0.06-0.279-0.1-0.279-0.43c0.029-0.61,0.369-3.07,0.559-4.43c0.031-0.28,0.121-0.82,0.18-1.35l0.111-0.03
					c0.26,0.29,0.52,0.53,0.719,0.73c1.83,1.8,4.301,4.35,5.631,5.8c0.26,0.28,0.17,0.42-0.199,0.48l-1.361,0.18
					c-0.15,0.02-0.199,0.2-0.219,0.34c-0.012,0.07,0.029,0.11,0.1,0.12c1.359,0.11,2.9,0.24,4.299,0.4
					c1.25,0.13,2.711,0.33,3.432,0.44c0.1,0.02,0.109-0.02,0.119-0.09c0.01-0.14,0-0.36-0.141-0.41l-0.959-0.47
					c-0.311-0.14-0.57-0.43-0.73-0.62c-1.98-3.12-4.189-6.4-6.311-9.2c-0.25-0.39-0.5-0.71-0.729-0.95l0.02-0.15
					C202.033,62.17,202.152,62.08,202.342,61.99z"/>
			</g>
		</g>
		<path id="Klebestreifen" opacity="0.5" fill="#CCCCCC" enable-background="new    " d="M158.902,4.735
			c0.135,0.038,0.264,0.056,0.389,0.045c0.016-0.205-0.088-0.404-0.232-0.563l0.047-0.012c0.242,0.16,0.477,0.371,0.771,0.516
			c-0.107-0.196-0.238-0.411-0.396-0.621l0.486-0.133c0.346,0.229,0.672,0.516,0.977,0.786c-0.049-0.162-0.182-0.377-0.285-0.575
			c0.271,0.075,0.5,0.188,0.719,0.328c-0.045-0.064-0.096-0.149-0.166-0.23c0.359,0.025,0.643,0.327,0.945,0.517
			c-0.191-0.423-0.391-0.872-0.6-1.266l0.164-0.048c0.244,0.159,0.297-0.207,0.504-0.013c-0.131-0.189,0.316,1.18-0.57-1.076
			l0.021-0.008c1.021,2.205,0.672,0.898,0.928,1.003c-0.1-0.172-0.133-0.111-0.279-0.273c0.291,0.148,0.572,0.484,0.848,0.66
			c-0.09-0.15-0.121-0.274-0.264-0.438c0.203,0.097,0.422,0.247,0.623,0.342c-0.049-0.086-0.072-0.188-0.158-0.293
			c0.244,0.138,0.529,0.268,0.779,0.348c-0.121-0.165-0.24-0.331-0.408-0.486c0.295,0.171,0.631,0.381,0.916,0.505
			c-0.213-0.321-0.514-0.585-0.793-0.861l0.096-0.024c0.35,0.179,0.646,0.422,0.961,0.666c-0.109-0.122-0.17-0.256-0.285-0.398
			c0.324,0.159,0.691,0.409,1.037,0.466c-0.039-0.215-0.189-0.402-0.396-0.519c0.254,0.103,0.482,0.295,0.697,0.435
			c-0.088-0.226-0.23-0.387-0.4-0.54c0.291,0.245,0.697,0.434,1.002,0.626c-0.018-0.247-0.191-0.423-0.373-0.626
			c0.125,0.091,0.373,0.072,0.508,0.11c-0.08-0.104-0.156-0.283-0.279-0.375c0.244,0.059,0.475,0.172,0.705,0.184
			c-0.043-0.063-0.088-0.126-0.127-0.19c0.275-0.004,0.566,0.068,0.82,0.148c-0.123-0.167-0.275-0.349-0.398-0.518
			c0.283,0.197,0.643,0.502,0.936,0.649c-0.107-0.123-0.184-0.301-0.316-0.417c0.293,0.045,0.717,0.23,1.072,0.333
			c-0.084-0.129-0.025-0.193-0.158-0.312c0.336,0.036,0.695,0.163,1.012,0.3l0.025,0.021c0.012-0.055,0.016-0.131,0.027-0.186
			c-0.051-0.086-0.117-0.144-0.195-0.172c0.055,0.036,0.141,0.063,0.201,0.1c0.209,0.114,0.408,0.21,0.613,0.306l8.402,30.479
			c-0.059-0.032-0.15-0.081-0.211-0.14c-0.184-0.102-0.365-0.229-0.563-0.298c0.199,0.271,0.553,0.627,0.658,0.923l-0.26,0.072
			c-0.449-0.178-0.934-0.57-1.254-0.812c0.145,0.341,0.422,0.614,0.625,0.909c-0.379-0.023-0.756-0.292-1.174-0.354
			c0.18,0.201,0.381,0.373,0.488,0.596c-0.281-0.021-0.678-0.365-1.014-0.498c0.197,0.268,0.553,0.371,0.674,0.617l-0.166,0.044
			c-0.346-0.258-0.723-0.53-1.146-0.616c0.184,0.229,0.408,0.492,0.516,0.792l-0.068,0.021c-0.326-0.086-0.656-0.374-1.006-0.453
			c0.045,0.064,0.074,0.18,0.148,0.26c-0.355-0.104-0.686-0.288-1.041-0.394c0.176,0.182,0.332,0.388,0.33,0.641
			c-0.195-0.149-0.408-0.29-0.652-0.351c0.172,0.155,0.32,0.341,0.389,0.576c-0.4-0.271-0.824-0.631-1.287-0.829
			c0.086,0.304,0.279,0.554,0.424,0.813c-0.248-0.083-0.551-0.274-0.838-0.398c0.178,0.179,0.334,0.383,0.354,0.632
			c-0.303-0.094-0.578-0.371-0.861-0.568c0.178,0.279,0.395,0.52,0.52,0.787c-0.313-0.214-0.656-0.368-0.977-0.533
			c0.123,0.091,0.221,0.264,0.32,0.34c-0.156-0.109-0.34-0.135-0.512-0.215c0.129,0.294,0.43,0.563,0.531,0.837l-0.143,0.037
			c-0.303-0.188-0.6-0.36-0.922-0.522c0.162,0.128,0.293,0.346,0.369,0.523c-0.26-0.132-0.518-0.232-0.736-0.4
			c0.111,0.146,0.221,0.344,0.316,0.519c-0.313-0.217-0.695-0.515-0.973-0.791c0.219,0.244,0.357,0.556,0.469,0.879
			c-0.146-0.085-0.357-0.205-0.512-0.311c0.139,0.141,0.146,0.262,0.201,0.372c-0.307-0.295-0.742-0.422-1.074-0.71
			c0.172,0.155,0.254,0.381,0.297,0.62c-0.117-0.066-0.301-0.089-0.389-0.144c0.117,0.246,0.289,0.424,0.434,0.663
			c-0.328-0.188-0.801-0.535-0.939-0.851c0.135,0.215,0.271,0.428,0.379,0.65c-0.23-0.117-0.479-0.297-0.686-0.49
			c0.156,0.207,0.252,0.46,0.287,0.676c-0.252-0.183-0.529-0.455-0.654-0.726c0.113,0.323,0.277,0.631,0.295,0.975
			c-0.309-0.114-0.586-0.493-0.822-0.802l-8.723-31.623l0.07-0.019C158.676,4.473,158.785,4.593,158.902,4.735z"/>
	</g>
	<path id="Klebestreifen_3_" opacity="0.5" fill="#CCCCCC" enable-background="new    " d="M75.588,129.383
		c0.114-0.082,0.207-0.172,0.275-0.277c-0.151-0.139-0.372-0.182-0.586-0.166l0.02-0.043c0.275-0.094,0.586-0.146,0.882-0.289
		c-0.22-0.037-0.471-0.068-0.733-0.072l0.196-0.465c0.393-0.131,0.82-0.211,1.22-0.283c-0.158-0.061-0.408-0.088-0.628-0.129
		c0.228-0.168,0.456-0.279,0.702-0.363c-0.078-0.004-0.176-0.018-0.283-0.014c0.241-0.266,0.652-0.303,0.99-0.424
		c-0.451-0.109-0.928-0.23-1.367-0.311l0.064-0.156c0.275-0.096,0.021-0.363,0.301-0.404c-0.229-0.016,1.123,0.479-1.199-0.217
		l0.008-0.021c2.365,0.557,1.121,0.025,1.361-0.111c-0.195-0.027-0.169,0.035-0.388,0.051c0.298-0.137,0.734-0.15,1.044-0.26
		c-0.176-0.021-0.291-0.074-0.508-0.061c0.201-0.102,0.455-0.18,0.653-0.279c-0.097-0.016-0.192-0.059-0.327-0.057
		c0.258-0.107,0.537-0.252,0.754-0.398c-0.204-0.008-0.408-0.016-0.635,0.021c0.316-0.129,0.689-0.262,0.963-0.41
		c-0.385-0.031-0.777,0.043-1.167,0.092l0.04-0.09c0.355-0.164,0.73-0.248,1.117-0.346c-0.164,0.012-0.307-0.023-0.489-0.021
		c0.325-0.156,0.748-0.291,1.007-0.529c-0.193-0.102-0.434-0.098-0.653-0.006c0.237-0.137,0.53-0.199,0.772-0.281
		c-0.232-0.07-0.447-0.057-0.672-0.018c0.372-0.078,0.771-0.281,1.11-0.402c-0.205-0.139-0.45-0.109-0.723-0.092
		c0.149-0.045,0.288-0.25,0.4-0.334c-0.131,0-0.319-0.051-0.468-0.012c0.197-0.154,0.429-0.266,0.58-0.439
		c-0.076-0.006-0.153-0.01-0.229-0.018c0.168-0.221,0.404-0.404,0.623-0.555c-0.206-0.006-0.443,0.002-0.652-0.006
		c0.33-0.102,0.792-0.195,1.088-0.334c-0.163,0.008-0.35-0.043-0.523-0.01c0.217-0.201,0.625-0.422,0.924-0.637
		c-0.152-0.016-0.168-0.1-0.342-0.068c0.234-0.242,0.557-0.447,0.859-0.611l0.031-0.008c-0.035-0.041-0.092-0.094-0.129-0.135
		c-0.098-0.014-0.184,0.002-0.255,0.047c0.063-0.021,0.136-0.072,0.202-0.096c0.22-0.096,0.418-0.193,0.619-0.295l29.166,12.205
		c-0.063,0.027-0.156,0.068-0.24,0.082c-0.193,0.08-0.406,0.145-0.582,0.258c0.336,0.01,0.834-0.047,1.133,0.053l-0.104,0.248
		c-0.418,0.242-1.025,0.381-1.412,0.484c0.357,0.098,0.742,0.047,1.1,0.07c-0.252,0.283-0.695,0.414-1.002,0.705
		c0.27-0.018,0.527-0.068,0.77-0.016c-0.189,0.207-0.705,0.307-1.018,0.49c0.332,0.01,0.633-0.207,0.902-0.15l-0.068,0.158
		c-0.416,0.113-0.863,0.24-1.193,0.521c0.295-0.004,0.639-0.018,0.941,0.084l-0.025,0.066c-0.27,0.203-0.699,0.285-0.979,0.512
		c0.08,0.004,0.188,0.051,0.297,0.043c-0.301,0.215-0.65,0.361-0.953,0.576c0.252-0.027,0.51-0.021,0.709,0.135
		c-0.238,0.063-0.48,0.143-0.678,0.297c0.227-0.039,0.465-0.041,0.691,0.051c-0.461,0.148-1.004,0.26-1.445,0.5
		c0.291,0.121,0.607,0.123,0.9,0.168c-0.219,0.145-0.557,0.266-0.83,0.414c0.248-0.029,0.506-0.025,0.715,0.111
		c-0.262,0.182-0.65,0.227-0.98,0.328c0.33,0.031,0.654,0.01,0.941,0.076c-0.361,0.115-0.695,0.289-1.023,0.439
		c0.148-0.041,0.344-0.012,0.467-0.043c-0.184,0.057-0.316,0.186-0.486,0.271c0.311,0.08,0.709,0.008,0.986,0.098l-0.059,0.135
		c-0.336,0.123-0.652,0.25-0.98,0.404c0.201-0.049,0.453-0.02,0.641,0.031c-0.266,0.123-0.502,0.264-0.77,0.332
		c0.184,0.002,0.406,0.039,0.602,0.072c-0.363,0.111-0.834,0.229-1.221,0.275c0.326-0.02,0.656,0.063,0.98,0.176
		c-0.158,0.061-0.383,0.152-0.561,0.209c0.195-0.021,0.295,0.047,0.416,0.072c-0.42,0.059-0.789,0.324-1.221,0.406
		c0.229-0.039,0.455,0.035,0.672,0.148c-0.125,0.053-0.256,0.182-0.354,0.219c0.266,0.061,0.512,0.033,0.789,0.068
		c-0.352,0.141-0.916,0.299-1.248,0.213c0.252,0.027,0.504,0.051,0.744,0.104c-0.234,0.109-0.529,0.193-0.809,0.236
		c0.26,0.006,0.518,0.086,0.709,0.193c-0.299,0.084-0.686,0.133-0.975,0.066c0.324,0.109,0.666,0.17,0.947,0.369
		c-0.279,0.172-0.748,0.156-1.137,0.152l-30.263-12.662l0.028-0.066C75.242,129.398,75.405,129.387,75.588,129.383z"/>
	<path id="Klebestreifen_4_" opacity="0.5" fill="#CCCCCC" enable-background="new    " d="M8.881,119.314
		c0.126,0.061,0.25,0.1,0.375,0.109c0.05-0.199-0.019-0.414-0.133-0.594l0.047-0.004c0.213,0.197,0.407,0.445,0.673,0.639
		c-0.071-0.211-0.164-0.447-0.284-0.68l0.501-0.049c0.303,0.283,0.576,0.621,0.83,0.938c-0.021-0.168-0.116-0.4-0.185-0.613
		c0.256,0.121,0.462,0.27,0.653,0.445c-0.034-0.07-0.068-0.164-0.124-0.256c0.35,0.086,0.577,0.43,0.845,0.67
		c-0.118-0.449-0.238-0.926-0.378-1.352l0.169-0.018c0.215,0.197,0.328-0.154,0.499,0.072c-0.096-0.207,0.112,1.217-0.381-1.158
		l0.023-0.004c0.635,2.346,0.51,1,0.745,1.145c-0.068-0.184-0.111-0.131-0.229-0.316c0.263,0.197,0.481,0.574,0.726,0.795
		c-0.065-0.164-0.073-0.291-0.188-0.475c0.184,0.129,0.374,0.314,0.556,0.441c-0.032-0.094-0.04-0.197-0.105-0.314
		c0.217,0.174,0.478,0.352,0.709,0.473c-0.091-0.184-0.181-0.367-0.32-0.549c0.263,0.219,0.558,0.482,0.817,0.652
		c-0.155-0.354-0.406-0.664-0.635-0.982l0.097-0.008c0.314,0.234,0.567,0.525,0.836,0.818c-0.087-0.139-0.124-0.281-0.214-0.439
		c0.292,0.211,0.612,0.518,0.944,0.633c-0.002-0.219-0.119-0.428-0.305-0.578c0.233,0.145,0.427,0.373,0.615,0.545
		c-0.05-0.236-0.163-0.42-0.305-0.598c0.246,0.289,0.615,0.543,0.882,0.785c0.025-0.248-0.117-0.449-0.263-0.68
		c0.11,0.109,0.357,0.135,0.483,0.193c-0.062-0.115-0.107-0.305-0.212-0.418c0.23,0.1,0.438,0.252,0.663,0.301
		c-0.031-0.068-0.064-0.139-0.093-0.209c0.272,0.043,0.548,0.164,0.783,0.285c-0.092-0.186-0.213-0.389-0.305-0.578
		c0.246,0.242,0.549,0.604,0.812,0.799c-0.084-0.141-0.129-0.328-0.241-0.465c0.281,0.094,0.669,0.35,1.001,0.51
		c-0.06-0.143,0.007-0.195-0.104-0.334c0.325,0.092,0.659,0.277,0.946,0.465l0.021,0.025c0.021-0.053,0.039-0.127,0.059-0.18
		c-0.035-0.092-0.09-0.16-0.164-0.201c0.049,0.045,0.13,0.086,0.182,0.133c0.188,0.148,0.368,0.275,0.553,0.404l3.146,31.459
		c-0.054-0.041-0.135-0.105-0.186-0.172c-0.163-0.133-0.321-0.289-0.503-0.389c0.15,0.301,0.438,0.711,0.492,1.02l-0.268,0.027
		c-0.412-0.25-0.823-0.719-1.099-1.01c0.085,0.359,0.312,0.676,0.461,1c-0.368-0.086-0.695-0.414-1.097-0.547
		c0.144,0.23,0.313,0.432,0.381,0.67c-0.272-0.066-0.606-0.475-0.916-0.662c0.15,0.299,0.483,0.459,0.562,0.723l-0.171,0.016
		c-0.298-0.313-0.623-0.645-1.027-0.801c0.144,0.256,0.319,0.553,0.375,0.867l-0.071,0.008c-0.307-0.139-0.583-0.479-0.915-0.615
		c0.033,0.072,0.044,0.189,0.104,0.281c-0.333-0.162-0.627-0.4-0.961-0.563c0.144,0.207,0.263,0.438,0.219,0.688
		c-0.167-0.182-0.354-0.355-0.584-0.457c0.143,0.182,0.259,0.391,0.285,0.633c-0.35-0.334-0.706-0.76-1.128-1.033
		c0.032,0.313,0.182,0.592,0.28,0.871c-0.231-0.123-0.497-0.361-0.759-0.533c0.144,0.207,0.264,0.434,0.242,0.684
		c-0.283-0.145-0.508-0.465-0.754-0.707c0.129,0.307,0.302,0.58,0.38,0.863c-0.272-0.262-0.586-0.473-0.873-0.689
		c0.105,0.111,0.174,0.297,0.259,0.389c-0.136-0.135-0.313-0.189-0.469-0.297c0.077,0.311,0.33,0.625,0.383,0.914l-0.146,0.012
		c-0.269-0.236-0.531-0.455-0.822-0.67c0.138,0.152,0.231,0.391,0.276,0.578c-0.234-0.174-0.471-0.316-0.658-0.52
		c0.086,0.164,0.16,0.377,0.224,0.564c-0.271-0.266-0.599-0.625-0.824-0.943c0.173,0.277,0.258,0.607,0.313,0.945
		c-0.129-0.107-0.316-0.262-0.451-0.391c0.112,0.16,0.1,0.281,0.135,0.4c-0.251-0.344-0.66-0.541-0.938-0.881
		c0.142,0.182,0.185,0.416,0.188,0.66c-0.105-0.086-0.282-0.139-0.36-0.207c0.073,0.262,0.214,0.467,0.315,0.727
		c-0.291-0.24-0.698-0.662-0.782-0.996c0.097,0.234,0.196,0.467,0.264,0.705c-0.208-0.156-0.422-0.373-0.593-0.6
		c0.118,0.23,0.171,0.496,0.168,0.715c-0.217-0.223-0.443-0.539-0.522-0.826c0.058,0.338,0.167,0.668,0.127,1.01
		c-0.284-0.164-0.494-0.584-0.676-0.928L8.52,118.889l0.071-0.006C8.702,119.016,8.791,119.154,8.881,119.314z"/>
	<path id="Klebestreifen_5_" opacity="0.5" fill="#CCCCCC" enable-background="new    " d="M208.887,116.506
		c0.127-0.057,0.236-0.129,0.322-0.219c-0.121-0.164-0.332-0.248-0.543-0.275l0.027-0.039c0.289-0.039,0.604-0.029,0.92-0.111
		c-0.207-0.08-0.449-0.158-0.703-0.215l0.279-0.416c0.412-0.053,0.846-0.049,1.252-0.043c-0.143-0.092-0.383-0.166-0.59-0.25
		c0.256-0.121,0.5-0.184,0.758-0.221c-0.074-0.018-0.17-0.051-0.275-0.066c0.289-0.215,0.699-0.172,1.053-0.225
		c-0.42-0.195-0.865-0.406-1.281-0.568l0.094-0.143c0.289-0.039,0.09-0.35,0.375-0.338c-0.223-0.059,1.008,0.688-1.137-0.443
		l0.012-0.021c2.213,1.004,1.096,0.242,1.357,0.154c-0.188-0.064-0.172,0.002-0.391-0.025c0.318-0.076,0.75-0.004,1.074-0.053
		c-0.168-0.055-0.27-0.129-0.486-0.158c0.217-0.059,0.482-0.088,0.695-0.148c-0.092-0.033-0.178-0.094-0.311-0.119
		c0.273-0.055,0.576-0.143,0.818-0.244c-0.201-0.047-0.4-0.094-0.629-0.104c0.336-0.063,0.727-0.121,1.023-0.213
		c-0.371-0.107-0.771-0.109-1.162-0.137l0.057-0.08c0.381-0.094,0.766-0.104,1.164-0.123c-0.164-0.021-0.297-0.084-0.477-0.115
		c0.35-0.092,0.789-0.143,1.09-0.326c-0.17-0.137-0.406-0.182-0.641-0.133c0.26-0.088,0.559-0.092,0.813-0.127
		c-0.215-0.111-0.428-0.141-0.656-0.146c0.381-0.006,0.813-0.129,1.168-0.18c-0.176-0.178-0.422-0.195-0.691-0.23
		c0.154-0.016,0.33-0.191,0.457-0.248c-0.129-0.027-0.305-0.113-0.457-0.104c0.223-0.115,0.473-0.178,0.652-0.32
		c-0.072-0.02-0.146-0.039-0.219-0.063c0.205-0.182,0.475-0.318,0.719-0.422c-0.201-0.047-0.436-0.084-0.641-0.133
		c0.344-0.035,0.814-0.039,1.133-0.117c-0.162-0.025-0.336-0.109-0.512-0.111c0.252-0.156,0.693-0.293,1.029-0.447
		c-0.146-0.045-0.146-0.129-0.322-0.131c0.277-0.195,0.633-0.334,0.961-0.436h0.031c-0.027-0.049-0.072-0.111-0.1-0.16
		c-0.094-0.031-0.182-0.033-0.26-0.002c0.066-0.008,0.148-0.045,0.217-0.055c0.234-0.051,0.447-0.107,0.664-0.17l26.268,17.598
		c-0.066,0.014-0.168,0.037-0.252,0.033c-0.205,0.041-0.426,0.063-0.619,0.139c0.328,0.076,0.826,0.115,1.1,0.27l-0.148,0.225
		c-0.455,0.158-1.08,0.178-1.479,0.205c0.332,0.162,0.719,0.189,1.064,0.281c-0.301,0.229-0.762,0.271-1.119,0.498
		c0.268,0.035,0.531,0.033,0.758,0.131c-0.225,0.168-0.752,0.168-1.092,0.285c0.324,0.074,0.66-0.08,0.914,0.029l-0.096,0.141
		c-0.434,0.031-0.895,0.07-1.273,0.281c0.289,0.055,0.631,0.107,0.908,0.264l-0.039,0.061c-0.303,0.148-0.74,0.145-1.057,0.313
		c0.076,0.021,0.172,0.088,0.283,0.1c-0.338,0.154-0.709,0.229-1.047,0.383c0.252,0.023,0.504,0.076,0.67,0.27
		c-0.246,0.014-0.5,0.047-0.723,0.16c0.23,0.006,0.463,0.049,0.668,0.182c-0.48,0.057-1.035,0.063-1.514,0.215
		c0.262,0.172,0.57,0.236,0.85,0.336c-0.242,0.102-0.596,0.154-0.895,0.248c0.25,0.02,0.502,0.072,0.682,0.248
		c-0.291,0.127-0.682,0.096-1.025,0.131c0.318,0.096,0.639,0.135,0.908,0.256c-0.377,0.043-0.738,0.15-1.088,0.234
		c0.152-0.012,0.34,0.055,0.465,0.049c-0.189,0.018-0.346,0.119-0.529,0.172c0.291,0.139,0.693,0.145,0.949,0.287l-0.082,0.119
		c-0.354,0.057-0.689,0.119-1.039,0.207c0.203-0.008,0.447,0.07,0.619,0.156c-0.283,0.07-0.543,0.162-0.818,0.178
		c0.18,0.037,0.393,0.115,0.578,0.186c-0.379,0.039-0.863,0.064-1.252,0.035c0.322,0.043,0.633,0.188,0.928,0.361
		c-0.166,0.029-0.404,0.076-0.59,0.098c0.195,0.018,0.281,0.104,0.395,0.15c-0.424-0.023-0.836,0.166-1.275,0.164
		c0.23,0.006,0.439,0.123,0.629,0.275c-0.133,0.027-0.285,0.129-0.389,0.145c0.248,0.111,0.496,0.133,0.76,0.221
		c-0.369,0.07-0.953,0.115-1.264-0.031c0.24,0.074,0.484,0.146,0.711,0.244c-0.254,0.063-0.557,0.088-0.84,0.078
		c0.254,0.055,0.49,0.182,0.658,0.324c-0.311,0.025-0.697,0-0.969-0.123c0.297,0.172,0.621,0.297,0.859,0.545
		c-0.309,0.115-0.766,0.01-1.146-0.068l-27.256-18.258l0.041-0.057C208.541,116.455,208.705,116.477,208.887,116.506z"/>
	<path id="Klebestreifen_6_" opacity="0.5" fill="#CCCCCC" enable-background="new    " d="M187.334,117.957
		c0.066,0.123,0.145,0.227,0.24,0.309c0.156-0.131,0.227-0.346,0.242-0.559l0.039,0.025c0.057,0.285,0.066,0.6,0.166,0.912
		c0.068-0.213,0.133-0.459,0.172-0.717l0.434,0.256c0.076,0.408,0.1,0.842,0.117,1.248c0.082-0.15,0.143-0.393,0.213-0.604
		c0.137,0.246,0.215,0.486,0.266,0.742c0.014-0.076,0.041-0.172,0.051-0.279c0.232,0.275,0.213,0.688,0.287,1.039
		c0.17-0.434,0.354-0.889,0.492-1.314l0.146,0.086c0.057,0.287,0.355,0.068,0.359,0.354c0.047-0.225-0.625,1.047,0.375-1.16
		l0.021,0.01c-0.869,2.27-0.176,1.107-0.072,1.363c0.053-0.189-0.014-0.172,0.002-0.391c0.094,0.314,0.049,0.748,0.115,1.07
		c0.045-0.172,0.115-0.277,0.131-0.496c0.072,0.213,0.117,0.477,0.189,0.686c0.027-0.094,0.082-0.182,0.1-0.316
		c0.072,0.27,0.176,0.566,0.293,0.801c0.033-0.201,0.07-0.404,0.064-0.633c0.084,0.33,0.166,0.719,0.275,1.01
		c0.084-0.377,0.063-0.777,0.066-1.168l0.084,0.051c0.115,0.375,0.148,0.758,0.191,1.154c0.012-0.164,0.066-0.301,0.088-0.482
		c0.111,0.344,0.189,0.779,0.389,1.068c0.127-0.178,0.158-0.416,0.096-0.646c0.104,0.254,0.123,0.553,0.176,0.803
		c0.098-0.221,0.113-0.436,0.105-0.664c0.029,0.381,0.178,0.803,0.248,1.154c0.168-0.184,0.17-0.432,0.189-0.701
		c0.025,0.152,0.211,0.316,0.275,0.439c0.02-0.129,0.094-0.311,0.076-0.463c0.127,0.217,0.205,0.463,0.357,0.635
		c0.016-0.074,0.031-0.15,0.051-0.223c0.193,0.193,0.346,0.453,0.465,0.691c0.033-0.203,0.057-0.439,0.094-0.646
		c0.055,0.342,0.088,0.811,0.184,1.123c0.016-0.164,0.088-0.342,0.08-0.518c0.172,0.242,0.334,0.676,0.508,1
		c0.037-0.148,0.121-0.152,0.113-0.328c0.209,0.266,0.369,0.611,0.49,0.934l0.002,0.031c0.049-0.029,0.107-0.078,0.154-0.109
		c0.025-0.096,0.021-0.184-0.014-0.26c0.012,0.066,0.053,0.145,0.068,0.215c0.064,0.23,0.133,0.439,0.207,0.652l-16.006,27.266
		c-0.018-0.064-0.047-0.166-0.047-0.25c-0.053-0.201-0.09-0.42-0.176-0.609c-0.057,0.332-0.066,0.832-0.205,1.113l-0.232-0.135
		c-0.184-0.445-0.24-1.066-0.291-1.465c-0.145,0.342-0.146,0.73-0.219,1.08c-0.246-0.285-0.316-0.744-0.563-1.086
		c-0.021,0.268-0.002,0.531-0.088,0.764c-0.18-0.215-0.211-0.74-0.35-1.074c-0.055,0.33,0.119,0.656,0.027,0.914l-0.146-0.088
		c-0.057-0.43-0.123-0.887-0.357-1.252c-0.037,0.291-0.068,0.635-0.209,0.922l-0.063-0.037c-0.166-0.291-0.189-0.729-0.375-1.035
		c-0.016,0.078-0.078,0.178-0.082,0.287c-0.176-0.326-0.271-0.691-0.445-1.02c-0.008,0.252-0.047,0.506-0.229,0.684
		c-0.029-0.246-0.076-0.496-0.203-0.713c0.008,0.23-0.021,0.467-0.143,0.68c-0.084-0.477-0.123-1.031-0.303-1.5
		c-0.156,0.271-0.201,0.584-0.285,0.869c-0.117-0.236-0.189-0.586-0.301-0.879c-0.004,0.252-0.043,0.506-0.207,0.695
		c-0.145-0.283-0.137-0.676-0.191-1.016c-0.076,0.322-0.098,0.646-0.203,0.922c-0.064-0.373-0.193-0.729-0.297-1.072
		c0.02,0.152-0.035,0.344-0.021,0.467c-0.029-0.189-0.141-0.338-0.203-0.518c-0.121,0.297-0.104,0.701-0.23,0.965l-0.123-0.076
		c-0.078-0.35-0.16-0.682-0.27-1.025c0.02,0.203-0.043,0.451-0.117,0.629c-0.088-0.279-0.195-0.533-0.227-0.807
		c-0.027,0.182-0.094,0.398-0.15,0.588c-0.063-0.375-0.117-0.859-0.109-1.248c-0.025,0.324-0.152,0.643-0.307,0.949
		c-0.039-0.164-0.1-0.4-0.133-0.584c-0.006,0.195-0.086,0.285-0.127,0.402c-0.002-0.426-0.215-0.824-0.238-1.264
		c0.006,0.23-0.098,0.445-0.238,0.645c-0.035-0.131-0.145-0.277-0.168-0.379c-0.096,0.254-0.104,0.502-0.174,0.771
		c-0.094-0.365-0.174-0.945-0.045-1.264c-0.061,0.244-0.117,0.492-0.201,0.723c-0.078-0.248-0.121-0.549-0.127-0.832
		c-0.041,0.256-0.154,0.5-0.287,0.676c-0.043-0.309-0.039-0.697,0.066-0.975c-0.152,0.307-0.26,0.637-0.492,0.891
		c-0.135-0.301-0.055-0.764,0-1.148l16.605-28.291l0.061,0.037C187.365,117.609,187.354,117.773,187.334,117.957z"/>
</g>
</svg>
